<?xml version="1.0" standalone="no"?>
<!DOCTYPE svg PUBLIC "-//W3C//DTD SVG 20010904//EN"
 "http://www.w3.org/TR/2001/REC-SVG-20010904/DTD/svg10.dtd">
<svg version="1.0" xmlns="http://www.w3.org/2000/svg"
 width="1300.000000pt" height="300.000000pt" viewBox="0 0 1300.000000 300.000000"
 preserveAspectRatio="xMidYMid meet">
<metadata>
Created by potrace 1.14, written by Peter Selinger 2001-2017
</metadata>
<g transform="translate(0.000000,300.000000) scale(0.100000,-0.100000)"
fill="#000000" stroke="none">
<path d="M610 1690 l0 -1021 533 4 c569 4 584 5 742 59 187 64 339 182 443
346 46 70 99 204 123 309 30 127 37 393 15 532 -62 393 -286 651 -656 757
l-95 28 -552 4 -553 3 0 -1021z m953 545 c188 -40 311 -157 363 -346 24 -88
24 -306 -1 -404 -35 -142 -110 -241 -220 -291 -92 -42 -184 -56 -380 -58
l-180 -1 -3 558 -2 557 177 0 c116 0 202 -5 246 -15z"/>
<path d="M5840 2525 l0 -185 245 0 245 0 0 185 0 185 -245 0 -245 0 0 -185z"/>
<path d="M11340 1690 l0 -1020 248 2 c190 2 247 6 246 16 -1 6 -2 464 -2 1017
l-2 1005 -245 0 -245 0 0 -1020z"/>
<path d="M3260 2194 c-423 -82 -687 -407 -667 -819 23 -460 328 -743 803 -745
258 -1 472 81 609 233 54 60 119 177 131 235 l7 32 -227 0 -226 0 -24 -38
c-32 -51 -52 -67 -121 -98 -50 -23 -74 -28 -141 -28 -72 0 -89 4 -148 33 -97
47 -149 125 -171 253 l-6 38 543 2 543 3 -1 110 c-4 311 -142 571 -375 703
-30 16 -92 42 -139 57 -72 23 -106 28 -225 30 -77 2 -151 1 -165 -1z m216
-342 c62 -22 102 -53 143 -113 29 -41 69 -155 58 -165 -2 -2 -137 -3 -299 -2
l-295 3 12 47 c28 113 119 210 219 234 70 17 103 16 162 -4z"/>
<path d="M4783 2186 c-261 -50 -410 -173 -452 -374 -21 -101 -42 -92 213 -92
l224 0 11 45 c20 78 92 115 225 115 127 -1 186 -35 186 -110 0 -78 -110 -128
-402 -180 -238 -42 -325 -78 -408 -166 -69 -73 -101 -145 -107 -243 -18 -255
147 -449 444 -523 75 -19 115 -22 273 -22 198 0 258 9 393 60 183 70 310 237
320 419 l2 50 -232 3 -233 2 0 -27 c-1 -107 -115 -193 -255 -193 -209 0 -308
177 -146 260 21 10 101 33 177 50 378 85 462 115 546 189 30 26 60 67 80 109
32 64 33 72 33 182 0 110 -1 118 -33 182 -58 118 -177 201 -357 249 -103 27
-390 36 -502 15z"/>
<path d="M6985 2193 c-54 -7 -138 -34 -195 -63 -157 -79 -276 -240 -326 -440
-28 -111 -26 -364 5 -475 81 -301 267 -458 570 -482 154 -12 285 38 395 150
l59 60 -6 -139 c-3 -76 -10 -155 -16 -175 -17 -57 -53 -102 -101 -129 -40 -22
-57 -25 -145 -25 -87 0 -107 3 -150 25 -41 21 -54 34 -75 77 l-25 53 -242 0
c-134 0 -243 -3 -243 -8 0 -4 9 -41 21 -82 73 -266 297 -390 704 -390 399 0
632 144 721 445 16 55 18 126 21 813 l4 752 -236 0 -235 0 0 -92 0 -91 -28 39
c-105 144 -268 205 -477 177z m319 -385 c26 -8 60 -31 92 -63 68 -68 98 -158
97 -295 0 -113 -25 -190 -81 -252 -58 -64 -103 -83 -202 -83 -75 0 -90 3 -133
28 -101 60 -142 155 -141 327 1 131 19 196 76 264 62 75 183 106 292 74z"/>
<path d="M10320 2194 c-220 -33 -336 -81 -428 -174 -77 -78 -132 -202 -132
-297 l0 -33 103 0 c56 0 159 3 228 7 l127 6 11 39 c28 91 130 145 254 135 131
-11 203 -67 201 -159 0 -44 -5 -55 -32 -79 -40 -36 -67 -43 -292 -75 -341 -48
-481 -100 -574 -211 -96 -115 -115 -332 -41 -490 46 -101 164 -187 301 -219
98 -23 304 -15 394 16 87 29 156 65 207 106 l41 34 14 -63 13 -62 249 -3 c234
-2 248 -1 241 15 -38 95 -38 100 -45 613 -7 530 -9 546 -56 645 -43 94 -172
185 -308 220 -118 30 -368 45 -476 29z m350 -1032 c-24 -132 -90 -202 -212
-222 -158 -27 -268 38 -268 160 0 110 71 159 295 205 71 15 143 32 160 39 l30
13 3 -69 c2 -38 -2 -94 -8 -126z"/>
<path d="M5840 1415 l0 -745 245 0 245 0 0 745 0 745 -245 0 -245 0 0 -745z"/>
<path d="M8127 2153 c-11 -11 -8 -961 4 -1053 38 -309 190 -456 484 -468 66
-2 134 1 168 8 115 23 260 115 322 203 l20 27 -3 -100 -3 -100 240 0 241 0 0
745 0 745 -245 0 -244 0 -3 -457 c-3 -454 -3 -458 -26 -508 -57 -124 -173
-184 -303 -156 -68 15 -116 52 -143 110 -20 45 -21 61 -24 529 l-3 482 -238 0
c-131 0 -241 -3 -244 -7z"/>
<path d="M12192 1319 c-175 -34 -298 -219 -262 -395 21 -105 92 -199 185 -244
43 -22 64 -25 150 -25 85 0 106 4 143 23 67 35 129 98 159 161 25 49 28 67 28
151 0 83 -3 101 -27 145 -52 100 -138 164 -247 185 -60 11 -69 11 -129 -1z
m160 -59 c20 -6 59 -28 87 -50 131 -104 144 -306 27 -423 -115 -115 -301 -115
-406 -1 -58 63 -80 115 -80 193 0 89 16 135 69 194 78 86 190 118 303 87z"/>
<path d="M12127 1173 c-4 -3 -7 -89 -7 -190 l0 -183 35 0 34 0 3 73 3 72 55
-2 c71 -3 100 -32 100 -99 0 -44 0 -44 36 -44 29 0 35 3 30 16 -3 9 -6 36 -6
61 0 37 -5 50 -30 73 -29 27 -29 29 -10 35 23 7 50 54 50 87 0 13 -9 37 -19
55 -16 25 -30 33 -71 42 -56 12 -193 15 -203 4z m201 -69 c28 -19 29 -57 2
-84 -16 -16 -33 -20 -80 -20 l-60 0 0 60 0 60 58 0 c36 0 66 -6 80 -16z"/>
</g>
</svg>
