<?xml version="1.0" standalone="no"?>
<!DOCTYPE svg PUBLIC "-//W3C//DTD SVG 20010904//EN"
 "http://www.w3.org/TR/2001/REC-SVG-20010904/DTD/svg10.dtd">
<svg version="1.0" xmlns="http://www.w3.org/2000/svg"
 width="140.000000pt" height="140.000000pt" viewBox="0 0 140.000000 140.000000"
 preserveAspectRatio="xMidYMid meet">
<metadata>
Created by potrace 1.14, written by Peter Selinger 2001-2017
</metadata>
<g transform="translate(0.000000,140.000000) scale(0.100000,-0.100000)"
fill="#000000" stroke="none">
<path d="M680 1214 c-204 -38 -372 -124 -505 -258 -119 -120 -176 -245 -174
-382 l0 -59 22 75 c35 115 81 191 162 268 75 72 144 116 235 152 64 25 63 23
-16 -28 -209 -137 -312 -320 -283 -504 25 -155 132 -254 316 -293 257 -55 566
49 780 262 131 129 176 226 177 373 1 83 -2 102 -26 153 -49 105 -166 193
-308 233 -83 23 -278 27 -380 8z m-94 -396 c-3 -13 -6 -28 -6 -35 0 -6 -17
-13 -37 -15 l-38 -3 -29 -102 -29 -103 -43 0 c-24 0 -44 3 -44 8 0 4 12 45 25
91 32 108 32 111 -5 111 -33 0 -35 5 -20 44 9 26 11 26 121 26 111 0 111 0
105 -22z m154 -60 l0 -83 44 80 43 80 62 3 c39 2 61 -1 61 -8 0 -6 -16 -69
-36 -140 l-37 -130 -38 0 c-46 0 -48 6 -19 100 11 36 20 67 20 70 0 3 -22 -33
-48 -80 -43 -76 -51 -85 -79 -88 l-32 -3 -3 88 -3 88 -24 -87 -24 -88 -44 0
c-34 0 -44 3 -40 13 3 8 19 65 36 128 18 63 34 120 36 127 3 8 25 12 65 12
l60 0 0 -82z m460 69 c37 -19 38 -60 2 -97 -21 -21 -26 -30 -16 -34 25 -9 16
-63 -15 -98 -29 -33 -29 -33 -140 -36 -61 -3 -111 -1 -111 3 0 10 70 258 76
267 8 13 176 9 204 -5z"/>
</g>
</svg>
