<svg xmlns="http://www.w3.org/2000/svg" viewBox="0 0 294 281.904282115869" clip-path="url(#clip)" width="661" height="633.8052057094878"><defs><clipPath id="clip" clipPathUnits="objectBoundingBox"><rect x="0" y="0" width="294" height="281.904282115869"/></clipPath></defs><rect x="0" y="0" width="294" height="281.904282115869" fill="rgb(141, 138, 141)"/><path d="M15,184L274,184L274,287L15,287Z" fill="rgb(24, 23, 40)" fill-opacity="0.80"/><path d="M91,9L188,9L188,184L91,184Z" fill="rgb(111, 34, 12)" fill-opacity="0.49"/><path d="M195,-12L308,-12L308,193L195,193Z" fill="rgb(255, 247, 238)" fill-opacity="0.40"/><path d="M-31,-2L85,-2L85,202L-31,202Z" fill="rgb(230, 224, 215)" fill-opacity="0.34"/><path d="M73,174L223,174L223,232L73,232Z" fill="rgb(35, 33, 46)" fill-opacity="0.75"/><path d="M142,92L195,92L195,160L142,160Z" fill="rgb(255, 163, 138)" fill-opacity="0.40"/><path d="M258,49L321,49L321,207L258,207Z" fill="rgb(198, 190, 187)" fill-opacity="0.69"/><path d="M87,22L127,22L127,96L87,96Z" fill="rgb(52, 34, 32)" fill-opacity="0.58"/><path d="M145,234L290,234L290,296L145,296Z" fill="rgb(47, 46, 63)" fill-opacity="0.85"/><path d="M102,49L181,49L181,75L102,75Z" fill="rgb(255, 156, 128)" fill-opacity="0.37"/><path d="M59,122L104,122L104,170L59,170Z" fill="rgb(181, 175, 172)" fill-opacity="0.90"/><path d="M138,71L160,71L160,183L138,183Z" fill="rgb(168, 102, 88)" fill-opacity="0.78"/><path d="M-8,35L33,35L33,218L-8,218Z" fill="rgb(162, 159, 160)" fill-opacity="0.78"/><path d="M8,244L83,244L83,302L8,302Z" fill="rgb(29, 28, 42)" fill-opacity="0.86"/><path d="M165,185L238,185L238,244L165,244Z" fill="rgb(44, 42, 57)" fill-opacity="0.95"/><path d="M117,5L164,5L164,35L117,35Z" fill="rgb(0, 0, 2)" fill-opacity="0.63"/><path d="M57,-17L199,-17L199,13L57,13Z" fill="rgb(255, 255, 255)" fill-opacity="0.18"/><path d="M44,-26L100,-26L100,32L44,32Z" fill="rgb(180, 176, 174)" fill-opacity="0.86"/><path d="M24,35L54,35L54,197L24,197Z" fill="rgb(170, 166, 166)" fill-opacity="0.83"/><path d="M52,191L143,191L143,244L52,244Z" fill="rgb(33, 32, 46)" fill-opacity="0.86"/><path d="M170,168L204,168L204,284L170,284Z" fill="rgb(45, 43, 59)" fill-opacity="0.81"/><path d="M98,18L181,18L181,39L98,39Z" fill="rgb(30, 23, 24)" fill-opacity="0.61"/><path d="M249,20L315,20L315,195L249,195Z" fill="rgb(193, 186, 184)" fill-opacity="0.87"/><path d="M91,185L109,156L128,183Z" fill="rgb(3, 12, 27)" fill-opacity="0.57"/><path d="M178,-22L242,-22L242,29L178,29Z" fill="rgb(190, 186, 183)" fill-opacity="0.74"/><path d="M168,31L137,39L193,112Z" fill="rgb(198, 126, 101)" fill-opacity="0.56"/><path d="M184,84L177,18L196,68Z" fill="rgb(0, 0, 0)" fill-opacity="0.35"/><path d="M192,16L250,16L250,170L192,170Z" fill="rgb(195, 186, 184)" fill-opacity="0.54"/><path d="M170,47L193,56L180,23Z" fill="rgb(8, 2, 2)" fill-opacity="0.46"/><path d="M59,147L82,147L82,180L59,180Z" fill="rgb(175, 170, 169)" fill-opacity="0.89"/><path d="M212,199L267,199L267,218L212,218Z" fill="rgb(41, 39, 53)" fill-opacity="0.88"/><path d="M285,195L347,195L347,245L285,245Z" fill="rgb(214, 207, 203)" fill-opacity="0.66"/><path d="M26,209L174,209L174,265L26,265Z" fill="rgb(36, 35, 50)" fill-opacity="0.83"/><path d="M285,263L337,263L337,294L285,294Z" fill="rgb(33, 31, 47)" fill-opacity="0.69"/><path d="M248,221L281,221L281,274L248,274Z" fill="rgb(51, 50, 67)" fill-opacity="0.87"/><path d="M65,186L140,186L140,201L65,201Z" fill="rgb(26, 25, 36)" fill-opacity="0.78"/><path d="M70,112L94,112L94,173L70,173Z" fill="rgb(181, 176, 173)" fill-opacity="0.89"/><path d="M58,32L86,32L86,122L58,122Z" fill="rgb(192, 185, 182)" fill-opacity="0.49"/><path d="M100,95L128,95L128,138L100,138Z" fill="rgb(146, 89, 76)" fill-opacity="0.77"/><path d="M14,36L38,36L38,206L14,206Z" fill="rgb(166, 162, 163)" fill-opacity="0.77"/><path d="M118,-4L86,45L13,-56Z" fill="rgb(181, 176, 174)" fill-opacity="1.00"/><path d="M345,177L198,169L273,204Z" fill="rgb(191, 184, 183)" fill-opacity="0.98"/><path d="M99,49L109,49L109,133L99,133Z" fill="rgb(120, 82, 71)" fill-opacity="0.58"/><path d="M181,63L197,80L189,109Z" fill="rgb(125, 20, 0)" fill-opacity="0.38"/><path d="M184,126L253,126L253,158L184,158Z" fill="rgb(190, 184, 182)" fill-opacity="0.84"/><path d="M167,14L69,-87L264,76Z" fill="rgb(188, 183, 180)" fill-opacity="0.89"/><path d="M-4,125L-7,272L31,205Z" fill="rgb(157, 154, 155)" fill-opacity="1.00"/><path d="M82,71L108,15L161,-8Z" fill="rgb(15, 12, 14)" fill-opacity="0.59"/><path d="M154,135L175,135L175,171L154,171Z" fill="rgb(195, 128, 100)" fill-opacity="0.61"/><path d="M84,55L99,20L96,106Z" fill="rgb(4, 3, 3)" fill-opacity="0.48"/><path d="M98,25L133,25L133,45L98,45Z" fill="rgb(32, 23, 23)" fill-opacity="0.68"/><path d="M74,22L86,22L86,128L74,128Z" fill="rgb(186, 179, 176)" fill-opacity="0.65"/><path d="M106,153L141,153L141,170L106,170Z" fill="rgb(64, 33, 22)" fill-opacity="0.31"/><path d="M13,237L56,237L56,282L13,282Z" fill="rgb(26, 25, 38)" fill-opacity="0.71"/><path d="M176,44L192,49L189,88Z" fill="rgb(38, 25, 22)" fill-opacity="0.52"/><path d="M-3,322L8,264L51,196Z" fill="rgb(26, 25, 37)" fill-opacity="0.91"/><path d="M175,73L151,74L160,98Z" fill="rgb(85, 52, 46)" fill-opacity="0.54"/><path d="M189,3L272,3L272,43L189,43Z" fill="rgb(189, 183, 181)" fill-opacity="0.88"/><path d="M87,232L239,232L239,258L87,258Z" fill="rgb(49, 48, 65)" fill-opacity="0.38"/><path d="M114,10L169,10L169,31L114,31Z" fill="rgb(30, 22, 23)" fill-opacity="0.47"/><path d="M217,178L186,182L263,200Z" fill="rgb(34, 33, 45)" fill-opacity="0.64"/><path d="M121,170L16,218L79,179Z" fill="rgb(32, 33, 42)" fill-opacity="0.75"/><path d="M124,5L157,16L152,3Z" fill="rgb(16, 6, 3)" fill-opacity="0.56"/><path d="M47,72L60,72L60,194L47,194Z" fill="rgb(175, 170, 169)" fill-opacity="0.63"/><path d="M55,192L141,192L141,219L55,219Z" fill="rgb(30, 30, 42)" fill-opacity="0.62"/><path d="M-3,295L24,207L-41,199Z" fill="rgb(153, 150, 152)" fill-opacity="0.98"/><path d="M14,159L42,159L42,203L14,203Z" fill="rgb(163, 159, 160)" fill-opacity="0.76"/><path d="M114,-57L157,3L128,1Z" fill="rgb(186, 182, 177)" fill-opacity="0.93"/><path d="M273,136L295,136L295,216L273,216Z" fill="rgb(195, 188, 186)" fill-opacity="0.75"/><path d="M156,201L227,198L180,155Z" fill="rgb(45, 43, 57)" fill-opacity="0.75"/><path d="M178,14L132,-10L155,6Z" fill="rgb(195, 191, 186)" fill-opacity="0.66"/><path d="M141,214L278,214L278,234L141,234Z" fill="rgb(44, 43, 59)" fill-opacity="0.50"/><path d="M85,84L139,84L139,100L85,100Z" fill="rgb(112, 64, 54)" fill-opacity="0.49"/><path d="M97,27L117,27L117,54L97,54Z" fill="rgb(31, 21, 22)" fill-opacity="0.36"/><path d="M52,28L69,28L69,187L52,187Z" fill="rgb(176, 171, 170)" fill-opacity="0.73"/><path d="M127,96L142,96L142,180L127,180Z" fill="rgb(131, 74, 64)" fill-opacity="0.56"/><path d="M219,280L290,248L278,217Z" fill="rgb(57, 55, 73)" fill-opacity="0.65"/><path d="M130,139L155,139L155,159L130,159Z" fill="rgb(170, 109, 97)" fill-opacity="0.45"/><path d="M24,215L55,215L55,238L24,238Z" fill="rgb(23, 24, 36)" fill-opacity="0.59"/><path d="M191,41L165,11L104,17Z" fill="rgb(38, 28, 28)" fill-opacity="0.88"/><path d="M174,65L184,65L184,150L174,150Z" fill="rgb(221, 149, 124)" fill-opacity="0.32"/><path d="M188,36L182,28L191,27Z" fill="rgb(198, 201, 200)" fill-opacity="0.55"/><path d="M68,253L168,253L168,285L68,285Z" fill="rgb(38, 37, 54)" fill-opacity="0.72"/><path d="M248,194L230,249L188,164Z" fill="rgb(41, 39, 52)" fill-opacity="0.88"/><path d="M160,25L103,58L166,36Z" fill="rgb(132, 74, 61)" fill-opacity="0.41"/><path d="M95,122L84,88L114,126Z" fill="rgb(132, 81, 71)" fill-opacity="0.70"/><path d="M279,207L296,207L296,224L279,224Z" fill="rgb(198, 192, 190)" fill-opacity="0.75"/><path d="M77,83L104,172L107,145Z" fill="rgb(180, 172, 168)" fill-opacity="0.80"/><path d="M125,136L130,109L148,123Z" fill="rgb(105, 59, 54)" fill-opacity="0.54"/><path d="M174,127L166,111L153,136Z" fill="rgb(144, 81, 66)" fill-opacity="0.61"/><path d="M70,141L87,141L87,176L70,176Z" fill="rgb(178, 173, 171)" fill-opacity="1.00"/><path d="M148,71L154,107L117,64Z" fill="rgb(178, 112, 100)" fill-opacity="0.60"/><path d="M141,182L163,178L185,152Z" fill="rgb(206, 144, 111)" fill-opacity="0.52"/><path d="M32,-19L62,-19L62,190L32,190Z" fill="rgb(173, 169, 168)" fill-opacity="0.50"/><path d="M257,185L395,210L290,237Z" fill="rgb(193, 187, 185)" fill-opacity="1.00"/><path d="M151,109L164,110L177,125Z" fill="rgb(163, 87, 73)" fill-opacity="0.71"/><path d="M21,78L89,78L89,83L21,83Z" fill="rgb(178, 173, 172)" fill-opacity="0.51"/><path d="M33,203L6,197L13,235Z" fill="rgb(157, 154, 156)" fill-opacity="0.81"/><path d="M190,43L168,22L191,77Z" fill="rgb(35, 25, 25)" fill-opacity="0.63"/><path d="M137,204L269,204L269,207L137,207Z" fill="rgb(40, 39, 53)" fill-opacity="0.73"/><path d="M4,236L9,236L9,262L4,262Z" fill="rgb(154, 151, 152)" fill-opacity="0.85"/><path d="M186,156L181,187L181,151Z" fill="rgb(36, 42, 60)" fill-opacity="0.54"/><path d="M174,20L183,18L181,26Z" fill="rgb(131, 123, 118)" fill-opacity="0.68"/><path d="M73,47L76,47L76,183L73,183Z" fill="rgb(181, 175, 173)" fill-opacity="0.68"/><path d="M231,217L239,217L239,284L231,284Z" fill="rgb(105, 106, 133)" fill-opacity="0.13"/><path d="M166,115L193,115L196,84Z" fill="rgb(197, 122, 105)" fill-opacity="0.58"/><path d="M156,183L177,164L187,200Z" fill="rgb(51, 48, 63)" fill-opacity="0.58"/><path d="M132,42L182,45L152,77Z" fill="rgb(200, 127, 105)" fill-opacity="0.37"/><path d="M192,57L183,57L183,72L192,72Z" fill="rgb(54, 37, 33)" fill-opacity="0.73"/><path d="M53,164L82,162L78,182Z" fill="rgb(171, 167, 167)" fill-opacity="0.68"/><path d="M184,159L196,155L205,173Z" fill="rgb(195, 196, 195)" fill-opacity="0.44"/><path d="M167,170L149,185L122,174Z" fill="rgb(180, 127, 101)" fill-opacity="0.50"/><path d="M187,78L137,90L156,81Z" fill="rgb(169, 109, 91)" fill-opacity="0.72"/><path d="M32,152L57,152L57,193L32,193Z" fill="rgb(167, 163, 163)" fill-opacity="0.84"/><path d="M180,150L230,141L192,108Z" fill="rgb(187, 183, 180)" fill-opacity="0.46"/><path d="M108,15L138,-24L74,48Z" fill="rgb(187, 184, 181)" fill-opacity="0.72"/><path d="M168,-3L165,15L220,-4Z" fill="rgb(188, 185, 180)" fill-opacity="0.41"/><path d="M180,28L152,18L183,54Z" fill="rgb(30, 21, 21)" fill-opacity="0.49"/><path d="M268,214L254,196L261,198Z" fill="rgb(40, 40, 55)" fill-opacity="0.56"/><path d="M186,120L194,168L187,163Z" fill="rgb(193, 190, 188)" fill-opacity="0.47"/><path d="M0,320L33,205L13,240Z" fill="rgb(20, 20, 29)" fill-opacity="0.52"/><path d="M325,229L295,278L290,246Z" fill="rgb(245, 236, 228)" fill-opacity="0.44"/><path d="M90,247L98,241L131,277Z" fill="rgb(49, 49, 67)" fill-opacity="0.51"/><path d="M118,8L137,-2L93,-4Z" fill="rgb(196, 191, 187)" fill-opacity="0.67"/><path d="M101,168L80,179L98,130Z" fill="rgb(183, 178, 176)" fill-opacity="0.79"/><path d="M87,175L108,213L116,163Z" fill="rgb(29, 28, 40)" fill-opacity="0.68"/><path d="M113,84L109,89L128,86Z" fill="rgb(147, 102, 89)" fill-opacity="0.50"/><path d="M146,196L158,176L166,218Z" fill="rgb(22, 20, 32)" fill-opacity="0.47"/><path d="M112,130L129,135L125,149Z" fill="rgb(174, 110, 87)" fill-opacity="0.54"/><path d="M113,143L117,99L129,149Z" fill="rgb(163, 100, 83)" fill-opacity="0.52"/><path d="M160,86L169,93L158,87Z" fill="rgb(34, 20, 22)" fill-opacity="0.50"/><path d="M274,248L264,231L257,250Z" fill="rgb(42, 40, 58)" fill-opacity="0.53"/><path d="M290,253L352,291L283,221Z" fill="rgb(193, 187, 185)" fill-opacity="0.78"/><path d="M209,-22L196,79L189,40Z" fill="rgb(190, 184, 181)" fill-opacity="0.61"/><path d="M164,255L170,264L172,241Z" fill="rgb(63, 61, 74)" fill-opacity="0.47"/><path d="M155,87L170,87L164,85Z" fill="rgb(31, 9, 7)" fill-opacity="0.50"/><path d="M154,144L153,120L139,134Z" fill="rgb(176, 113, 102)" fill-opacity="0.56"/><path d="M127,90L106,111L126,125Z" fill="rgb(203, 116, 111)" fill-opacity="0.21"/><path d="M163,219L165,230L156,212Z" fill="rgb(68, 68, 81)" fill-opacity="0.48"/><path d="M80,178L124,186L69,189Z" fill="rgb(25, 22, 34)" fill-opacity="0.51"/><path d="M100,93L96,87L116,87Z" fill="rgb(125, 92, 83)" fill-opacity="0.47"/><path d="M290,251L295,281L227,301Z" fill="rgb(49, 46, 62)" fill-opacity="0.62"/><path d="M104,165L142,190L126,174Z" fill="rgb(13, 18, 31)" fill-opacity="0.44"/><path d="M177,163L153,182L185,144Z" fill="rgb(200, 138, 109)" fill-opacity="0.57"/><path d="M168,69L176,77L149,81Z" fill="rgb(0, 0, 2)" fill-opacity="0.20"/><path d="M160,161L116,170L107,156Z" fill="rgb(107, 70, 56)" fill-opacity="0.45"/><path d="M118,87L127,94L109,94Z" fill="rgb(25, 27, 34)" fill-opacity="0.51"/><path d="M187,132L181,141L189,108Z" fill="rgb(180, 145, 131)" fill-opacity="0.66"/><path d="M140,46L148,46L148,93L140,93Z" fill="rgb(179, 114, 101)" fill-opacity="0.76"/><path d="M196,96L194,72L187,87Z" fill="rgb(210, 113, 94)" fill-opacity="0.48"/><path d="M40,-1L70,-1L70,67L40,67Z" fill="rgb(179, 175, 173)" fill-opacity="0.36"/><path d="M124,78L121,84L102,83Z" fill="rgb(22, 12, 19)" fill-opacity="0.50"/><path d="M86,68L97,104L96,55Z" fill="rgb(26, 20, 21)" fill-opacity="0.62"/><path d="M104,169L107,149L84,165Z" fill="rgb(185, 180, 178)" fill-opacity="0.64"/><path d="M284,229L259,284L270,207Z" fill="rgb(57, 54, 71)" fill-opacity="0.58"/><path d="M50,61L64,61L64,189L50,189Z" fill="rgb(175, 170, 169)" fill-opacity="0.57"/><path d="M84,84L97,101L89,105Z" fill="rgb(137, 62, 52)" fill-opacity="0.58"/><path d="M160,0L176,17L166,12Z" fill="rgb(191, 187, 184)" fill-opacity="0.56"/><path d="M30,212L57,212L57,266L30,266Z" fill="rgb(30, 31, 44)" fill-opacity="0.69"/><path d="M164,204L184,222L171,230Z" fill="rgb(30, 29, 43)" fill-opacity="0.54"/><path d="M136,233L145,233L145,279L136,279Z" fill="rgb(27, 26, 41)" fill-opacity="0.53"/><path d="M154,182L187,162L172,214Z" fill="rgb(52, 50, 65)" fill-opacity="0.70"/><path d="M137,40L85,52L99,23Z" fill="rgb(35, 26, 25)" fill-opacity="0.51"/><path d="M101,169L83,177L108,151Z" fill="rgb(179, 176, 174)" fill-opacity="0.60"/><path d="M149,137L161,127L168,126Z" fill="rgb(119, 62, 52)" fill-opacity="0.75"/><path d="M170,72L176,44L152,33Z" fill="rgb(192, 125, 98)" fill-opacity="0.51"/><path d="M79,16L85,16L85,109L79,109Z" fill="rgb(186, 180, 178)" fill-opacity="0.86"/><path d="M110,13L101,23L134,2Z" fill="rgb(33, 26, 20)" fill-opacity="0.57"/><path d="M300,273L312,164L282,226Z" fill="rgb(193, 187, 186)" fill-opacity="1.00"/><path d="M99,87L120,105L97,103Z" fill="rgb(141, 97, 83)" fill-opacity="0.50"/><path d="M144,95L156,95L156,117L144,117Z" fill="rgb(212, 114, 94)" fill-opacity="0.32"/><path d="M73,183L38,204L12,246Z" fill="rgb(29, 31, 41)" fill-opacity="0.73"/><path d="M178,109L176,88L144,102Z" fill="rgb(185, 104, 85)" fill-opacity="0.47"/><path d="M123,48L160,34L101,85Z" fill="rgb(154, 97, 83)" fill-opacity="0.55"/><path d="M139,168L110,160L98,117Z" fill="rgb(103, 68, 56)" fill-opacity="0.43"/><path d="M173,198L263,198L263,200L173,200Z" fill="rgb(41, 40, 52)" fill-opacity="0.62"/><path d="M106,76L163,70L138,80Z" fill="rgb(164, 104, 97)" fill-opacity="0.49"/><path d="M53,227L65,251L66,240Z" fill="rgb(71, 71, 88)" fill-opacity="0.30"/><path d="M182,248L183,248L183,267L182,267Z" fill="rgb(93, 92, 108)" fill-opacity="0.76"/><path d="M147,241L145,267L148,296Z" fill="rgb(87, 83, 102)" fill-opacity="0.37"/><path d="M-15,-6L16,-6L16,184L-15,184Z" fill="rgb(162, 158, 159)" fill-opacity="0.37"/><path d="M147,28L182,24L175,31Z" fill="rgb(20, 15, 18)" fill-opacity="0.46"/><path d="M174,149L161,132L149,147Z" fill="rgb(194, 127, 107)" fill-opacity="0.57"/><path d="M92,108L94,87L96,121Z" fill="rgb(111, 59, 53)" fill-opacity="0.44"/><path d="M130,172L149,170L122,150Z" fill="rgb(91, 64, 51)" fill-opacity="0.35"/><path d="M135,129L117,129L141,138Z" fill="rgb(89, 44, 42)" fill-opacity="0.45"/><path d="M86,96L55,192L81,179Z" fill="rgb(177, 173, 171)" fill-opacity="0.51"/><path d="M95,96L84,89L92,86Z" fill="rgb(130, 65, 53)" fill-opacity="0.49"/><path d="M148,3L134,3L109,14Z" fill="rgb(35, 25, 20)" fill-opacity="0.68"/><path d="M37,204L68,204L68,227L37,227Z" fill="rgb(32, 32, 44)" fill-opacity="0.69"/><path d="M98,73L84,61L91,43Z" fill="rgb(29, 21, 19)" fill-opacity="0.37"/><path d="M178,91L162,81L170,78Z" fill="rgb(184, 115, 93)" fill-opacity="0.47"/><path d="M66,17L86,17L86,53L66,53Z" fill="rgb(183, 178, 176)" fill-opacity="0.55"/><path d="M202,35L277,35L277,171L202,171Z" fill="rgb(192, 185, 183)" fill-opacity="0.48"/><path d="M189,79L190,97L194,88Z" fill="rgb(211, 119, 97)" fill-opacity="0.46"/><path d="M251,207L267,199L255,199Z" fill="rgb(52, 51, 63)" fill-opacity="0.46"/><path d="M170,245L171,253L171,239Z" fill="rgb(102, 103, 114)" fill-opacity="0.48"/><path d="M228,249L248,244L254,218Z" fill="rgb(40, 39, 53)" fill-opacity="0.53"/><path d="M153,159L175,146L155,172Z" fill="rgb(161, 104, 84)" fill-opacity="0.49"/><path d="M291,267L294,286L306,266Z" fill="rgb(70, 68, 82)" fill-opacity="0.72"/><path d="M156,130L146,136L145,130Z" fill="rgb(210, 183, 152)" fill-opacity="0.44"/><path d="M80,85L70,80L91,81Z" fill="rgb(188, 181, 177)" fill-opacity="0.50"/><path d="M190,166L196,177L190,190Z" fill="rgb(22, 19, 31)" fill-opacity="0.55"/><path d="M131,117L133,74L143,107Z" fill="rgb(122, 61, 52)" fill-opacity="0.36"/><path d="M118,73L102,61L97,85Z" fill="rgb(131, 86, 75)" fill-opacity="0.57"/><path d="M92,179L134,179L134,203L92,203Z" fill="rgb(28, 27, 39)" fill-opacity="0.55"/><path d="M167,73L178,81L176,75Z" fill="rgb(116, 70, 63)" fill-opacity="0.50"/><path d="M105,230L106,230L106,268L105,268Z" fill="rgb(65, 65, 81)" fill-opacity="0.85"/><path d="M134,117L138,125L140,116Z" fill="rgb(92, 46, 41)" fill-opacity="0.47"/><path d="M180,174L178,164L188,178Z" fill="rgb(67, 66, 81)" fill-opacity="0.50"/><path d="M292,262L172,285L287,240Z" fill="rgb(54, 51, 69)" fill-opacity="0.44"/><path d="M178,260L178,240L180,233Z" fill="rgb(113, 114, 128)" fill-opacity="0.45"/><path d="M180,86L167,97L186,90Z" fill="rgb(195, 133, 109)" fill-opacity="0.51"/><path d="M196,195L205,174L195,215Z" fill="rgb(79, 79, 91)" fill-opacity="0.34"/><path d="M77,24L110,13L121,1Z" fill="rgb(195, 192, 190)" fill-opacity="0.44"/><path d="M44,200L14,218L106,149Z" fill="rgb(169, 166, 166)" fill-opacity="0.83"/><path d="M83,139L102,139L102,169L83,169Z" fill="rgb(186, 180, 177)" fill-opacity="0.57"/><path d="M253,242L251,247L253,251Z" fill="rgb(88, 86, 104)" fill-opacity="0.50"/><path d="M193,99L185,88L189,104Z" fill="rgb(124, 48, 42)" fill-opacity="0.44"/><path d="M189,118L183,75L176,86Z" fill="rgb(189, 132, 113)" fill-opacity="0.64"/><path d="M161,134L115,150L127,136Z" fill="rgb(152, 81, 74)" fill-opacity="0.56"/><path d="M193,30L228,30L228,76L193,76Z" fill="rgb(191, 185, 183)" fill-opacity="0.78"/><path d="M287,236L294,268L292,192Z" fill="rgb(194, 188, 186)" fill-opacity="0.65"/><path d="M193,244L201,262L216,231Z" fill="rgb(32, 31, 47)" fill-opacity="0.39"/><path d="M234,186L221,218L262,199Z" fill="rgb(42, 40, 52)" fill-opacity="0.70"/><path d="M132,47L152,28L137,31Z" fill="rgb(82, 42, 37)" fill-opacity="0.34"/><path d="M146,273L151,259L153,264Z" fill="rgb(60, 57, 76)" fill-opacity="0.50"/><path d="M120,46L99,55L113,60Z" fill="rgb(114, 73, 61)" fill-opacity="0.66"/><path d="M142,164L132,153L142,157Z" fill="rgb(148, 100, 87)" fill-opacity="0.48"/><path d="M157,237L166,226L166,221Z" fill="rgb(19, 20, 34)" fill-opacity="0.53"/><path d="M78,228L81,228L81,271L78,271Z" fill="rgb(50, 50, 67)" fill-opacity="0.50"/><path d="M261,298L244,291L259,273Z" fill="rgb(7, 3, 13)" fill-opacity="0.41"/><path d="M162,220L161,229L163,220Z" fill="rgb(96, 96, 109)" fill-opacity="0.50"/><path d="M71,239L71,233L69,235Z" fill="rgb(92, 91, 106)" fill-opacity="0.47"/><path d="M188,93L185,89L189,61Z" fill="rgb(16, 26, 30)" fill-opacity="0.42"/><path d="M266,200L279,220L248,197Z" fill="rgb(60, 57, 71)" fill-opacity="0.51"/><path d="M243,189L230,185L224,177Z" fill="rgb(197, 192, 190)" fill-opacity="0.43"/><path d="M155,57L173,75L180,63Z" fill="rgb(196, 134, 111)" fill-opacity="0.52"/><path d="M34,206L74,220L62,190Z" fill="rgb(31, 31, 42)" fill-opacity="0.57"/><path d="M91,202L90,198L88,211Z" fill="rgb(75, 75, 88)" fill-opacity="0.51"/><path d="M199,188L199,174L194,184Z" fill="rgb(62, 61, 74)" fill-opacity="0.58"/><path d="M187,28L187,24L171,17Z" fill="rgb(160, 154, 151)" fill-opacity="0.53"/><path d="M213,249L212,247L211,270Z" fill="rgb(77, 76, 89)" fill-opacity="0.57"/><path d="M137,268L139,261L144,273Z" fill="rgb(49, 49, 65)" fill-opacity="0.50"/><path d="M119,7L158,7L158,31L119,31Z" fill="rgb(33, 25, 25)" fill-opacity="0.57"/><path d="M145,222L140,189L142,232Z" fill="rgb(52, 54, 69)" fill-opacity="0.60"/><path d="M88,79L97,93L89,40Z" fill="rgb(21, 18, 19)" fill-opacity="0.44"/><path d="M154,91L167,107L166,94Z" fill="rgb(164, 100, 84)" fill-opacity="0.56"/><path d="M105,82L113,77L127,79Z" fill="rgb(51, 27, 27)" fill-opacity="0.55"/><path d="M86,105L123,96L98,132Z" fill="rgb(142, 96, 84)" fill-opacity="0.22"/><path d="M113,166L109,157L129,169Z" fill="rgb(129, 84, 69)" fill-opacity="0.48"/><path d="M50,275L133,275L133,286L50,286Z" fill="rgb(35, 33, 48)" fill-opacity="0.49"/><path d="M212,234L211,266L208,269Z" fill="rgb(27, 27, 42)" fill-opacity="0.51"/><path d="M265,48L301,48L301,200L265,200Z" fill="rgb(194, 187, 184)" fill-opacity="0.83"/><path d="M88,219L106,160L123,173Z" fill="rgb(30, 29, 41)" fill-opacity="0.48"/><path d="M176,104L187,132L156,105Z" fill="rgb(199, 118, 103)" fill-opacity="0.51"/><path d="M132,92L126,90L120,96Z" fill="rgb(88, 65, 60)" fill-opacity="0.53"/><path d="M146,-2L168,-32L184,23Z" fill="rgb(190, 186, 182)" fill-opacity="0.49"/><path d="M140,47L120,62L138,83Z" fill="rgb(169, 108, 96)" fill-opacity="0.65"/><path d="M85,248L82,248L82,255L85,255Z" fill="rgb(84, 84, 95)" fill-opacity="0.39"/><path d="M108,239L148,249L109,248Z" fill="rgb(50, 51, 69)" fill-opacity="0.57"/><path d="M144,2L63,-50L127,4Z" fill="rgb(192, 187, 179)" fill-opacity="0.49"/><path d="M256,209L272,235L263,233Z" fill="rgb(41, 41, 57)" fill-opacity="0.75"/><path d="M190,195L188,235L192,199Z" fill="rgb(81, 78, 93)" fill-opacity="0.46"/><path d="M185,32L204,49L183,20Z" fill="rgb(190, 183, 180)" fill-opacity="0.60"/><path d="M107,100L131,94L129,113Z" fill="rgb(151, 93, 79)" fill-opacity="0.52"/><path d="M105,16L120,16L120,42L105,42Z" fill="rgb(29, 24, 25)" fill-opacity="0.50"/><path d="M188,120L183,103L167,111Z" fill="rgb(209, 142, 123)" fill-opacity="0.37"/><path d="M144,253L149,234L147,257Z" fill="rgb(113, 110, 125)" fill-opacity="0.27"/><path d="M271,207L282,226L268,219Z" fill="rgb(75, 72, 88)" fill-opacity="0.63"/><path d="M164,31L176,44L149,34Z" fill="rgb(130, 79, 62)" fill-opacity="0.56"/><path d="M186,92L188,97L185,55Z" fill="rgb(41, 35, 35)" fill-opacity="0.46"/><path d="M64,21L87,72L89,87Z" fill="rgb(184, 177, 173)" fill-opacity="0.65"/><path d="M178,241L192,239L191,227Z" fill="rgb(31, 28, 46)" fill-opacity="0.47"/><path d="M95,172L105,164L86,170Z" fill="rgb(185, 180, 178)" fill-opacity="0.72"/><path d="M246,278L229,299L232,261Z" fill="rgb(70, 68, 86)" fill-opacity="0.47"/><path d="M186,196L183,193L185,210Z" fill="rgb(67, 69, 85)" fill-opacity="0.50"/><path d="M80,221L77,213L80,206Z" fill="rgb(60, 59, 72)" fill-opacity="0.63"/><path d="M194,270L189,296L194,282Z" fill="rgb(81, 78, 95)" fill-opacity="0.52"/><path d="M140,228L140,223L145,230Z" fill="rgb(72, 70, 83)" fill-opacity="0.46"/><path d="M157,11L169,14L190,39Z" fill="rgb(61, 50, 44)" fill-opacity="0.55"/><path d="M55,267L68,282L54,274Z" fill="rgb(39, 39, 54)" fill-opacity="0.56"/><path d="M281,269L273,281L273,270Z" fill="rgb(65, 63, 80)" fill-opacity="0.51"/><path d="M182,145L199,169L190,165Z" fill="rgb(194, 191, 190)" fill-opacity="0.50"/><path d="M197,76L234,76L234,169L197,169Z" fill="rgb(190, 184, 182)" fill-opacity="0.85"/><path d="M157,-3L224,-3L224,8L157,8Z" fill="rgb(185, 181, 177)" fill-opacity="0.47"/><path d="M116,263L119,261L119,274Z" fill="rgb(61, 60, 75)" fill-opacity="0.50"/><path d="M221,229L227,258L231,245Z" fill="rgb(34, 32, 47)" fill-opacity="0.60"/><path d="M57,24L85,24L85,142L57,142Z" fill="rgb(184, 179, 176)" fill-opacity="0.26"/><path d="M155,216L169,207L150,189Z" fill="rgb(20, 20, 34)" fill-opacity="0.43"/><path d="M190,260L192,229L195,225Z" fill="rgb(72, 70, 86)" fill-opacity="0.56"/><path d="M135,182L139,170L148,174Z" fill="rgb(148, 101, 82)" fill-opacity="0.54"/><path d="M85,272L84,271L84,272Z" fill="rgb(176, 171, 186)" fill-opacity="0.52"/><path d="M130,223L131,223L131,283L130,283Z" fill="rgb(170, 179, 192)" fill-opacity="0.14"/><path d="M148,124L139,135L123,122Z" fill="rgb(132, 90, 81)" fill-opacity="0.44"/><path d="M119,167L148,172L129,178Z" fill="rgb(132, 90, 72)" fill-opacity="0.53"/><path d="M151,126L131,126L146,132Z" fill="rgb(155, 92, 81)" fill-opacity="0.53"/><path d="M131,95L129,88L116,87Z" fill="rgb(81, 54, 47)" fill-opacity="0.48"/><path d="M129,79L122,77L137,95Z" fill="rgb(96, 53, 51)" fill-opacity="0.44"/><path d="M141,182L127,180L124,208Z" fill="rgb(25, 22, 33)" fill-opacity="0.49"/><path d="M44,237L20,223L25,216Z" fill="rgb(25, 25, 39)" fill-opacity="0.49"/><path d="M84,49L79,26L106,12Z" fill="rgb(185, 180, 177)" fill-opacity="0.71"/><path d="M218,170L276,170L276,181L218,181Z" fill="rgb(199, 193, 190)" fill-opacity="0.22"/><path d="M181,209L179,218L179,209Z" fill="rgb(122, 119, 130)" fill-opacity="0.47"/><path d="M212,221L212,232L213,223Z" fill="rgb(69, 65, 81)" fill-opacity="0.50"/><path d="M179,25L120,41L166,12Z" fill="rgb(42, 29, 28)" fill-opacity="0.50"/><path d="M107,15L93,34L138,3Z" fill="rgb(38, 29, 27)" fill-opacity="0.81"/><path d="M86,68L86,48L104,41Z" fill="rgb(31, 24, 23)" fill-opacity="0.69"/><path d="M119,280L120,237L122,268Z" fill="rgb(27, 25, 43)" fill-opacity="0.57"/><path d="M241,268L252,247L248,260Z" fill="rgb(70, 71, 86)" fill-opacity="0.49"/><path d="M158,29L156,18L179,28Z" fill="rgb(19, 16, 18)" fill-opacity="0.41"/><path d="M245,251L238,269L227,247Z" fill="rgb(47, 46, 62)" fill-opacity="0.57"/><path d="M154,92L154,87L168,89Z" fill="rgb(38, 25, 25)" fill-opacity="0.34"/><path d="M191,118L263,118L263,136L191,136Z" fill="rgb(190, 184, 182)" fill-opacity="0.59"/><path d="M121,150L91,92L103,140Z" fill="rgb(122, 85, 74)" fill-opacity="0.46"/><path d="M214,247L213,267L223,211Z" fill="rgb(31, 28, 45)" fill-opacity="0.59"/><path d="M226,187L222,205L231,188Z" fill="rgb(26, 25, 36)" fill-opacity="0.42"/><path d="M83,105L90,105L90,140L83,140Z" fill="rgb(193, 185, 179)" fill-opacity="0.30"/><path d="M77,227L79,227L79,264L77,264Z" fill="rgb(24, 25, 41)" fill-opacity="0.65"/><path d="M166,213L167,213L167,235L166,235Z" fill="rgb(78, 79, 91)" fill-opacity="0.52"/><path d="M197,82L194,89L192,78Z" fill="rgb(188, 72, 58)" fill-opacity="0.50"/><path d="M197,226L195,217L192,269Z" fill="rgb(30, 28, 45)" fill-opacity="0.58"/><path d="M250,249L249,243L245,262Z" fill="rgb(31, 30, 45)" fill-opacity="0.49"/><path d="M207,240L207,263L202,284Z" fill="rgb(28, 27, 42)" fill-opacity="0.54"/><path d="M118,95L119,106L113,85Z" fill="rgb(115, 81, 73)" fill-opacity="0.52"/><path d="M171,25L186,18L181,19Z" fill="rgb(132, 124, 121)" fill-opacity="0.56"/><path d="M163,221L162,216L157,222Z" fill="rgb(79, 79, 97)" fill-opacity="0.46"/><path d="M157,143L143,146L137,141Z" fill="rgb(153, 99, 86)" fill-opacity="0.56"/><path d="M158,100L169,139L176,123Z" fill="rgb(166, 100, 80)" fill-opacity="0.45"/><path d="M146,227L160,222L145,184Z" fill="rgb(32, 31, 46)" fill-opacity="0.62"/><path d="M163,10L100,22L144,2Z" fill="rgb(35, 28, 25)" fill-opacity="0.53"/><path d="M196,36L208,36L208,83L196,83Z" fill="rgb(192, 186, 183)" fill-opacity="0.69"/><path d="M141,218L135,227L141,199Z" fill="rgb(18, 22, 36)" fill-opacity="0.48"/><path d="M232,272L216,268L222,259Z" fill="rgb(37, 35, 52)" fill-opacity="0.54"/><path d="M251,222L246,233L249,211Z" fill="rgb(64, 63, 78)" fill-opacity="0.48"/><path d="M116,160L113,150L138,162Z" fill="rgb(97, 60, 48)" fill-opacity="0.56"/><path d="M281,177L301,177L301,227L281,227Z" fill="rgb(195, 189, 187)" fill-opacity="0.42"/><path d="M166,78L169,72L149,79Z" fill="rgb(71, 44, 41)" fill-opacity="0.49"/><path d="M177,183L170,172L172,191Z" fill="rgb(28, 26, 44)" fill-opacity="0.46"/><path d="M224,250L224,264L225,260Z" fill="rgb(103, 99, 110)" fill-opacity="0.47"/><path d="M128,171L109,157L120,173Z" fill="rgb(122, 83, 67)" fill-opacity="0.52"/><path d="M88,242L90,251L90,220Z" fill="rgb(75, 76, 87)" fill-opacity="0.50"/><path d="M107,152L108,152L108,278L107,278Z" fill="rgb(27, 26, 40)" fill-opacity="0.71"/><path d="M164,174L184,150L138,181Z" fill="rgb(197, 132, 105)" fill-opacity="0.33"/><path d="M167,256L169,205L169,265Z" fill="rgb(22, 20, 35)" fill-opacity="0.57"/><path d="M112,249L102,249L106,243Z" fill="rgb(35, 33, 53)" fill-opacity="0.63"/><path d="M95,114L92,115L92,123Z" fill="rgb(167, 154, 144)" fill-opacity="0.50"/><path d="M179,247L179,263L177,270Z" fill="rgb(102, 101, 116)" fill-opacity="0.44"/><path d="M127,270L126,273L127,256Z" fill="rgb(85, 89, 108)" fill-opacity="0.46"/><path d="M111,112L117,148L142,158Z" fill="rgb(155, 101, 79)" fill-opacity="0.39"/><path d="M77,35L85,35L85,92L77,92Z" fill="rgb(186, 181, 178)" fill-opacity="0.73"/><path d="M184,155L181,144L185,172Z" fill="rgb(56, 51, 61)" fill-opacity="0.60"/><path d="M25,215L18,269L46,201Z" fill="rgb(25, 25, 38)" fill-opacity="0.50"/><path d="M75,15L138,-11L113,12Z" fill="rgb(185, 181, 178)" fill-opacity="0.85"/><path d="M20,34L43,34L43,105L20,105Z" fill="rgb(169, 165, 166)" fill-opacity="0.51"/><path d="M253,268L248,264L249,253Z" fill="rgb(81, 78, 95)" fill-opacity="0.46"/><path d="M119,105L128,88L104,118Z" fill="rgb(144, 88, 78)" fill-opacity="0.52"/><path d="M113,260L134,264L134,246Z" fill="rgb(29, 28, 46)" fill-opacity="0.41"/><path d="M276,250L261,293L272,279Z" fill="rgb(34, 32, 48)" fill-opacity="0.53"/><path d="M158,242L158,230L154,255Z" fill="rgb(78, 78, 93)" fill-opacity="0.39"/><path d="M221,217L216,224L226,198Z" fill="rgb(54, 51, 66)" fill-opacity="0.48"/><path d="M59,251L60,260L62,225Z" fill="rgb(59, 58, 74)" fill-opacity="0.49"/><path d="M177,170L171,208L186,158Z" fill="rgb(60, 58, 73)" fill-opacity="0.53"/><path d="M210,207L214,187L202,221Z" fill="rgb(67, 66, 78)" fill-opacity="0.46"/><path d="M149,172L161,166L143,165Z" fill="rgb(151, 95, 74)" fill-opacity="0.54"/><path d="M185,202L180,191L181,215Z" fill="rgb(29, 28, 43)" fill-opacity="0.53"/><path d="M97,170L102,143L106,160Z" fill="rgb(190, 184, 181)" fill-opacity="0.55"/><path d="M34,221L16,233L21,223Z" fill="rgb(23, 24, 33)" fill-opacity="0.52"/><path d="M148,240L127,228L148,232Z" fill="rgb(33, 30, 41)" fill-opacity="0.57"/><path d="M85,273L87,241L88,284Z" fill="rgb(26, 24, 41)" fill-opacity="0.48"/><path d="M183,225L186,194L185,224Z" fill="rgb(75, 73, 89)" fill-opacity="0.44"/><path d="M212,181L225,200L218,219Z" fill="rgb(32, 30, 43)" fill-opacity="0.51"/><path d="M165,196L172,181L165,191Z" fill="rgb(83, 77, 94)" fill-opacity="0.50"/><path d="M163,220L168,218L163,238Z" fill="rgb(28, 28, 42)" fill-opacity="0.60"/><path d="M153,280L134,298L152,326Z" fill="rgb(203, 203, 207)" fill-opacity="0.54"/><path d="M113,80L104,82L104,89Z" fill="rgb(62, 41, 40)" fill-opacity="0.50"/><path d="M88,253L89,253L89,266L88,266Z" fill="rgb(133, 129, 144)" fill-opacity="0.39"/><path d="M10,148L25,148L25,217L10,217Z" fill="rgb(160, 157, 158)" fill-opacity="0.51"/><path d="M243,203L208,173L192,170Z" fill="rgb(37, 36, 47)" fill-opacity="0.49"/><path d="M189,190L188,196L180,179Z" fill="rgb(27, 26, 42)" fill-opacity="0.56"/><path d="M134,254L145,239L144,263Z" fill="rgb(28, 26, 41)" fill-opacity="0.51"/><path d="M148,36L96,60L98,51Z" fill="rgb(91, 54, 45)" fill-opacity="0.42"/><path d="M76,264L76,269L74,263Z" fill="rgb(64, 62, 78)" fill-opacity="0.53"/><path d="M191,72L184,31L186,96Z" fill="rgb(51, 37, 35)" fill-opacity="0.65"/><path d="M228,205L226,200L224,213Z" fill="rgb(26, 24, 39)" fill-opacity="0.52"/><path d="M155,189L130,179L158,195Z" fill="rgb(27, 22, 31)" fill-opacity="0.63"/><path d="M165,177L140,182L145,185Z" fill="rgb(146, 102, 82)" fill-opacity="0.44"/><path d="M247,224L257,223L241,230Z" fill="rgb(28, 26, 41)" fill-opacity="0.52"/><path d="M156,10L162,10L162,20L156,20Z" fill="rgb(57, 41, 32)" fill-opacity="0.46"/><path d="M130,51L162,33L180,50Z" fill="rgb(182, 115, 92)" fill-opacity="0.36"/><path d="M100,208L101,198L98,205Z" fill="rgb(59, 57, 68)" fill-opacity="0.48"/><path d="M83,263L83,240L79,254Z" fill="rgb(22, 22, 39)" fill-opacity="0.48"/><path d="M232,24L271,24L271,186L232,186Z" fill="rgb(191, 186, 184)" fill-opacity="0.29"/><path d="M246,219L238,208L235,226Z" fill="rgb(31, 31, 47)" fill-opacity="0.50"/><path d="M138,3L121,6L98,25Z" fill="rgb(40, 30, 24)" fill-opacity="0.46"/><path d="M51,212L51,210L49,209Z" fill="rgb(71, 76, 83)" fill-opacity="0.48"/><path d="M44,161L66,161L66,188L44,188Z" fill="rgb(167, 164, 165)" fill-opacity="0.46"/><path d="M178,201L194,224L188,224Z" fill="rgb(35, 33, 50)" fill-opacity="0.58"/><path d="M108,118L104,98L122,96Z" fill="rgb(148, 87, 74)" fill-opacity="0.48"/><path d="M184,143L170,159L178,162Z" fill="rgb(195, 136, 110)" fill-opacity="0.68"/><path d="M89,93L90,80L85,95Z" fill="rgb(129, 54, 45)" fill-opacity="0.58"/><path d="M145,105L138,79L141,122Z" fill="rgb(155, 85, 78)" fill-opacity="0.51"/><path d="M235,211L225,223L225,214Z" fill="rgb(27, 28, 43)" fill-opacity="0.55"/><path d="M98,219L96,250L82,204Z" fill="rgb(32, 32, 45)" fill-opacity="0.57"/><path d="M56,193L19,214L46,178Z" fill="rgb(164, 161, 162)" fill-opacity="0.69"/><path d="M274,179L230,183L282,207Z" fill="rgb(195, 188, 187)" fill-opacity="0.69"/><path d="M116,-5L96,29L82,-68Z" fill="rgb(184, 180, 178)" fill-opacity="0.85"/><path d="M185,157L190,165L186,138Z" fill="rgb(189, 186, 186)" fill-opacity="0.49"/><path d="M181,168L182,161L187,156Z" fill="rgb(47, 45, 60)" fill-opacity="0.51"/><path d="M211,263L214,249L213,240Z" fill="rgb(82, 81, 94)" fill-opacity="0.53"/><path d="M61,204L59,195L85,187Z" fill="rgb(24, 22, 34)" fill-opacity="0.53"/><path d="M138,266L138,237L140,259Z" fill="rgb(53, 53, 67)" fill-opacity="0.52"/><path d="M134,240L134,259L135,245Z" fill="rgb(77, 76, 92)" fill-opacity="0.51"/><path d="M187,9L297,9L297,36L187,36Z" fill="rgb(188, 183, 181)" fill-opacity="0.48"/><path d="M179,66L152,68L162,41Z" fill="rgb(199, 133, 110)" fill-opacity="0.29"/><path d="M113,252L117,264L116,236Z" fill="rgb(26, 25, 44)" fill-opacity="0.51"/><path d="M170,176L170,185L163,199Z" fill="rgb(76, 71, 87)" fill-opacity="0.60"/><path d="M183,175L187,161L191,190Z" fill="rgb(52, 52, 69)" fill-opacity="0.44"/><path d="M196,232L196,253L200,216Z" fill="rgb(75, 74, 87)" fill-opacity="0.43"/><path d="M98,77L104,77L104,119L98,119Z" fill="rgb(125, 93, 82)" fill-opacity="0.50"/><path d="M150,241L152,241L152,280L150,280Z" fill="rgb(105, 103, 116)" fill-opacity="0.27"/><path d="M174,236L171,237L172,266Z" fill="rgb(20, 20, 34)" fill-opacity="0.51"/><path d="M229,226L230,215L224,236Z" fill="rgb(65, 64, 77)" fill-opacity="0.52"/><path d="M89,94L86,82L86,99Z" fill="rgb(143, 54, 47)" fill-opacity="0.45"/><path d="M254,238L248,252L254,250Z" fill="rgb(75, 72, 90)" fill-opacity="0.45"/><path d="M169,32L189,41L178,47Z" fill="rgb(29, 22, 23)" fill-opacity="0.56"/><path d="M50,121L76,144L93,109Z" fill="rgb(180, 174, 171)" fill-opacity="0.48"/><path d="M157,77L143,80L152,83Z" fill="rgb(130, 86, 82)" fill-opacity="0.47"/><path d="M72,270L69,272L68,285Z" fill="rgb(56, 55, 70)" fill-opacity="0.59"/><path d="M122,241L122,231L120,226Z" fill="rgb(56, 55, 64)" fill-opacity="0.46"/><path d="M143,84L145,99L154,90Z" fill="rgb(189, 119, 97)" fill-opacity="0.67"/><path d="M5,279L-49,343L18,213Z" fill="rgb(152, 149, 150)" fill-opacity="0.69"/><path d="M104,168L73,214L74,182Z" fill="rgb(29, 29, 40)" fill-opacity="0.61"/><path d="M171,274L154,260L181,273Z" fill="rgb(31, 31, 48)" fill-opacity="0.49"/><path d="M185,87L186,41L193,61Z" fill="rgb(53, 39, 36)" fill-opacity="0.55"/><path d="M26,-7L51,-7L51,51L26,51Z" fill="rgb(174, 170, 169)" fill-opacity="0.42"/><path d="M153,170L160,176L145,184Z" fill="rgb(185, 128, 105)" fill-opacity="0.55"/><path d="M212,179L214,178L214,180Z" fill="rgb(69, 71, 83)" fill-opacity="0.57"/><path d="M109,250L111,270L109,277Z" fill="rgb(76, 75, 90)" fill-opacity="0.54"/><path d="M69,-12L71,-12L71,185L69,185Z" fill="rgb(179, 173, 172)" fill-opacity="0.66"/><path d="M192,241L193,229L191,249Z" fill="rgb(89, 87, 102)" fill-opacity="0.50"/><path d="M94,180L106,165L101,181Z" fill="rgb(22, 22, 31)" fill-opacity="0.52"/><path d="M191,222L189,223L187,235Z" fill="rgb(73, 71, 84)" fill-opacity="0.49"/><path d="M111,12L134,12L134,40L111,40Z" fill="rgb(34, 26, 27)" fill-opacity="0.47"/><path d="M174,35L180,23L158,24Z" fill="rgb(25, 20, 21)" fill-opacity="0.46"/><path d="M202,210L203,215L200,229Z" fill="rgb(24, 20, 36)" fill-opacity="0.51"/><path d="M159,276L151,260L154,292Z" fill="rgb(28, 26, 43)" fill-opacity="0.55"/><path d="M178,162L170,173L185,165Z" fill="rgb(45, 40, 50)" fill-opacity="0.52"/><path d="M133,203L127,215L146,196Z" fill="rgb(45, 45, 59)" fill-opacity="0.60"/><path d="M127,231L127,238L141,213Z" fill="rgb(33, 33, 46)" fill-opacity="0.56"/><path d="M120,7L124,4L112,7Z" fill="rgb(196, 190, 185)" fill-opacity="0.51"/><path d="M97,270L103,297L97,276Z" fill="rgb(95, 92, 106)" fill-opacity="0.44"/><path d="M117,169L131,180L121,202Z" fill="rgb(35, 33, 44)" fill-opacity="0.58"/><path d="M134,220L131,205L132,272Z" fill="rgb(21, 22, 37)" fill-opacity="0.40"/><path d="M200,181L192,189L199,189Z" fill="rgb(73, 73, 87)" fill-opacity="0.39"/><path d="M124,115L136,108L130,114Z" fill="rgb(109, 47, 40)" fill-opacity="0.46"/><path d="M125,112L123,104L112,124Z" fill="rgb(171, 105, 95)" fill-opacity="0.52"/><path d="M223,244L216,247L221,259Z" fill="rgb(61, 57, 71)" fill-opacity="0.50"/><path d="M169,272L151,290L166,269Z" fill="rgb(50, 49, 66)" fill-opacity="0.51"/><path d="M143,163L116,156L122,167Z" fill="rgb(99, 62, 51)" fill-opacity="0.53"/><path d="M123,113L126,125L131,118Z" fill="rgb(145, 88, 79)" fill-opacity="0.62"/><path d="M137,122L150,128L146,120Z" fill="rgb(125, 78, 71)" fill-opacity="0.46"/><path d="M114,84L108,87L129,87Z" fill="rgb(135, 93, 82)" fill-opacity="0.51"/><path d="M243,234L248,234L240,246Z" fill="rgb(33, 30, 46)" fill-opacity="0.50"/><path d="M81,246L81,245L67,254Z" fill="rgb(68, 69, 86)" fill-opacity="0.49"/><path d="M186,202L189,185L186,243Z" fill="rgb(22, 19, 36)" fill-opacity="0.42"/><path d="M135,134L121,128L128,133Z" fill="rgb(64, 39, 34)" fill-opacity="0.46"/><path d="M210,280L212,268L209,275Z" fill="rgb(75, 78, 97)" fill-opacity="0.50"/><path d="M257,212L254,215L252,229Z" fill="rgb(75, 74, 87)" fill-opacity="0.50"/><path d="M266,269L260,272L259,257Z" fill="rgb(71, 67, 86)" fill-opacity="0.48"/><path d="M108,94L114,89L114,94Z" fill="rgb(48, 22, 15)" fill-opacity="0.49"/><path d="M113,262L113,252L114,260Z" fill="rgb(102, 102, 118)" fill-opacity="0.53"/><path d="M121,48L103,80L99,58Z" fill="rgb(130, 85, 72)" fill-opacity="0.50"/><path d="M157,181L163,179L144,192Z" fill="rgb(19, 13, 22)" fill-opacity="0.48"/><path d="M183,17L169,20L180,14Z" fill="rgb(172, 165, 163)" fill-opacity="0.50"/><path d="M122,200L118,218L117,231Z" fill="rgb(77, 80, 89)" fill-opacity="0.38"/><path d="M237,279L251,293L254,300Z" fill="rgb(176, 172, 192)" fill-opacity="0.44"/><path d="M74,27L82,101L88,73Z" fill="rgb(185, 180, 176)" fill-opacity="0.30"/><path d="M128,4L167,-9L102,11Z" fill="rgb(191, 186, 182)" fill-opacity="0.58"/><path d="M232,258L236,247L232,267Z" fill="rgb(83, 83, 98)" fill-opacity="0.55"/><path d="M83,214L82,219L72,215Z" fill="rgb(25, 26, 41)" fill-opacity="0.51"/><path d="M95,53L127,45L146,31Z" fill="rgb(64, 37, 32)" fill-opacity="0.51"/><path d="M264,271L273,259L264,265Z" fill="rgb(43, 40, 58)" fill-opacity="0.53"/><path d="M160,157L149,159L173,139Z" fill="rgb(188, 131, 112)" fill-opacity="0.46"/><path d="M188,87L195,99L187,113Z" fill="rgb(187, 99, 81)" fill-opacity="0.42"/><path d="M206,289L208,256L204,286Z" fill="rgb(72, 72, 87)" fill-opacity="0.54"/><path d="M116,169L107,170L124,176Z" fill="rgb(24, 24, 35)" fill-opacity="0.52"/><path d="M196,172L202,175L205,192Z" fill="rgb(23, 22, 35)" fill-opacity="0.48"/><path d="M154,122L163,122L163,127L154,127Z" fill="rgb(179, 123, 110)" fill-opacity="0.59"/><path d="M181,265L182,265L182,281L181,281Z" fill="rgb(100, 99, 114)" fill-opacity="0.48"/><path d="M73,270L76,252L66,267Z" fill="rgb(27, 26, 41)" fill-opacity="0.51"/><path d="M91,38L88,43L98,76Z" fill="rgb(36, 27, 26)" fill-opacity="0.70"/><path d="M106,155L108,155L108,161L106,161Z" fill="rgb(10, 21, 30)" fill-opacity="0.54"/><path d="M142,117L155,109L150,118Z" fill="rgb(197, 122, 114)" fill-opacity="0.44"/><path d="M166,280L168,281L167,258Z" fill="rgb(27, 24, 42)" fill-opacity="0.60"/><path d="M45,220L60,205L71,206Z" fill="rgb(36, 36, 50)" fill-opacity="0.58"/><path d="M179,272L190,280L186,267Z" fill="rgb(41, 39, 59)" fill-opacity="0.50"/><path d="M180,286L176,282L177,275Z" fill="rgb(70, 70, 88)" fill-opacity="0.54"/><path d="M184,176L177,178L179,170Z" fill="rgb(77, 74, 88)" fill-opacity="0.56"/><path d="M61,207L60,202L60,212Z" fill="rgb(62, 58, 71)" fill-opacity="0.46"/></svg>