<svg width="879" height="329" viewBox="0 0 879 329" xmlns="http://www.w3.org/2000/svg"><title>g14</title><g fill="none" fill-rule="evenodd"><path d="M454.81 162.965c.007-7.11 1.645-12.424 4.93-15.948 3.28-3.53 8.762-5.292 16.438-5.292 7.544.012 12.828 1.756 15.85 5.242 3.023 3.487 4.54 8.828 4.54 16.016v8.014l-41.758-.006v-8.026zm51.337 47.77c-10.448 2.612-19.893 3.964-28.232 3.96-9.164 0-15.312-1.573-18.432-4.736-3.12-3.15-4.68-8.76-4.68-16.829v-8.192l57.95.012.008-20.39c0-5.394-.563-10.197-1.707-14.38a33.01 33.01 0 0 0-5.703-11.52c-2.666-3.487-6.458-6.154-11.365-8.045-4.912-1.896-10.847-2.844-17.803-2.844-7.021 0-13.072.93-18.142 2.778-5.08 1.86-9.036 4.49-11.863 7.91a33.266 33.266 0 0 0-6.19 11.446c-1.303 4.238-1.958 8.978-1.958 14.258v29.156c0 11.587 2.968 20.444 8.913 26.55 5.947 6.117 15.814 9.164 29.615 9.164 11.99 0 22.64-1.64 32.073-4.839l-2.484-13.459zM591.216 192.561c-.165-2.061-.648-4.124-1.45-6.166-.8-2.074-1.78-3.664-2.942-4.784-1.181-1.12-3.023-2.32-5.524-3.56-2.508-1.26-5.316-2.338-8.43-3.206-3.12-.893-7.097-2.018-11.935-3.425-2.832-.784-5.15-1.408-6.943-1.935-1.793-.488-3.321-1.106-4.581-1.92-1.262-.782-2.198-1.462-2.784-2.018-.576-.551-1.035-1.487-1.378-2.808-.34-1.316-.525-2.472-.55-3.451-.036-.984-.055-2.588-.05-4.832 0-3.224.356-5.641 1.072-7.25.71-1.609 2.251-2.85 4.624-3.743 2.362-.887 5.91-1.334 10.651-1.334 8.479 0 17.521.924 27.119 2.735v-13.955c-7.872-2.054-16.695-3.125-26.538-3.125-12.534 0-21.294 2.036-26.262 6.123-4.967 4.098-7.446 10.737-7.446 19.949 0 3.713.08 6.717.246 8.999a32.37 32.37 0 0 0 1.212 6.753c.648 2.221 1.528 3.97 2.636 5.28 1.101 1.31 2.678 2.636 4.728 3.957 2.05 1.34 4.485 2.406 7.298 3.2 2.827.766 6.264 1.81 10.314 3.107 3.585.919 6.376 1.621 8.388 2.148a32.343 32.343 0 0 1 5.578 1.921c1.707.783 2.924 1.45 3.652 2 .728.558 1.334 1.407 1.823 2.539.501 1.156.777 2.22.85 3.243.062.997.098 2.52.098 4.532 0 5.34-1.113 8.864-3.315 10.596-2.2 1.725-7.072 2.588-14.589 2.588-9.416 0-18.72-1.352-27.945-4.02l-.196 1.198v12.652c3.56 1.192 7.788 2.208 12.75 3.04 5.878.979 11.328 1.468 16.37 1.468 5.548 0 10.29-.36 14.204-1.118 3.921-.754 7.152-1.83 9.696-3.22 2.55-1.4 4.538-3.278 5.976-5.658 1.438-2.373 2.441-4.978 2.992-7.817.556-2.821.832-6.252.832-10.29 0-3.518-.079-6.343-.25-8.393M695.145 193.38c0 14.242 7.574 21.369 22.72 21.369 15.226 0 22.844-7.127 22.844-21.363l.005-29.363c0-14.236-7.603-21.374-22.824-21.374-15.16 0-22.739 7.138-22.739 21.374l-.006 29.358zm-16.78-.782l.006-28.208c0-5.25.746-10.057 2.25-14.383a32.733 32.733 0 0 1 6.824-11.506c3.058-3.352 7.169-5.958 12.338-7.843 5.18-1.89 11.214-2.844 18.107-2.844 13.464 0 23.436 3.376 29.895 10.119 6.485 6.722 9.709 15.561 9.709 26.488l-.012 28.19c0 10.918-3.243 19.746-9.708 26.438-6.467 6.693-16.444 10.038-29.908 10.038-13.459 0-23.4-3.345-29.848-10.05-6.435-6.692-9.653-15.52-9.653-26.439z" fill="#2B2B2A"/><path d="M777.87 131.956h11.146v95.279h-11.145v-95.279zM809.841 227.234v-95.278h9.838l.75 8.408c5.623-2.688 12.04-5.096 19.252-7.222 7.214-2.129 13.447-3.196 18.69-3.196 6.998 0 12.045 1.856 15.134 5.546 3.088 3.694 4.638 9.013 4.638 15.957v75.785h-11.154v-77.293c0-3.444-.837-5.903-2.525-7.372-1.69-1.468-4.215-2.205-7.587-2.205-4.001 0-9.561 1.056-16.681 3.162-7.121 2.108-13.52 4.692-19.203 7.758v75.95h-11.152z" fill="#E72C76"/><path d="M663.243 143.817l.012-13.96h-25.669l.007-24.5-16.78-.012-.012 24.505h-17.167l-.005 13.955H620.8l-.014 63.107c0 7.953 1.94 13.624 5.8 17.044 3.872 3.418 10.003 5.113 18.39 5.12 6.574 0 12.637-.99 18.236-2.858l-2.46-13.336c-5.236 1.212-9.648 1.86-13.135 1.86-4.227-.006-6.96-.818-8.196-2.44-1.243-1.62-1.848-4.405-1.848-8.369l.012-60.128 25.657.012zM424.706 129.57c-1.946.41-3.934.874-6.05 1.468-7.384 2.086-14.04 4.528-19.956 7.31l-1.546-8.388H383.59l-.019 97.268 16.774.007.018-73.563c5.134-2.661 10.94-4.973 17.406-6.876a97.93 97.93 0 0 1 6.936-1.774V129.57z" fill="#2B2B2A"/><path d="M191.54 67.665c-.366-.976-.966-.976-1.326 0l-1.47 3.961c-.36.981-1.46 2.085-2.453 2.453l-3.964 1.468c-.99.367-.99.963 0 1.336l3.964 1.459c.992.361 2.093 1.468 2.453 2.453l1.47 3.971c.36.99.96.99 1.326 0l1.47-3.97c.36-.986 1.46-2.093 2.452-2.454l3.964-1.459c.984-.373.984-.969 0-1.336l-3.964-1.468c-.992-.368-2.092-1.472-2.452-2.453l-1.47-3.961zM235.898 26.739c-.582-1.563-1.529-1.563-2.11 0l-2.73 7.42c-.592 1.552-2.33 3.297-3.896 3.883l-7.42 2.742c-1.554.572-1.554 1.527 0 2.095l7.42 2.735c1.566.58 3.304 2.337 3.896 3.885l2.73 7.427c.581 1.569 1.528 1.569 2.11 0l2.74-7.427c.568-1.548 2.326-3.304 3.886-3.86l7.413-2.76c1.553-.568 1.553-1.523 0-2.095l-7.413-2.742c-1.56-.586-3.318-2.331-3.886-3.883l-2.74-7.42zM241.556 159.845l8.54-77.14a1.514 1.514 0 0 1 1.427-1.337l51 .137a1.481 1.481 0 0 1 1.565 1.328l8.901 77.263c.05.428-.085.846-.373 1.156a1.524 1.524 0 0 1-1.119.508H242.993c-.83 0-1.498-.692-1.498-1.506 0-.153.02-.277.061-.409" fill="#DE2370"/><path d="M254.121 70.653c-2.923 1.813-6.716 1.003-8.477-1.841-1.758-2.82-.815-6.583 2.11-8.4 2.918-1.816 6.716-.996 8.472 1.836 1.756 2.825.82 6.594-2.105 8.405M203.353 54.185c-1.806-1.459-2.135-4.044-.715-5.803 1.4-1.756 4.013-1.978 5.816-.522 1.8 1.44 2.13 4.049.716 5.793-1.405 1.743-4.012 1.979-5.817.532M218.187 90.963c-4.117-1.45-6.294-5.848-4.893-9.812 1.413-3.97 5.872-6.015 9.977-4.552 4.094 1.45 6.288 5.843 4.876 9.815-1.408 3.956-5.86 5.99-9.96 4.549M288.96 103.105a1.9 1.9 0 0 1-1.902-1.889v-23.97c0-5.415-4.398-9.8-9.818-9.8-5.403 0-9.802 4.385-9.802 9.8v23.97a1.9 1.9 0 0 1-1.901 1.89 1.902 1.902 0 0 1-1.903-1.89v-23.97c0-7.511 6.112-13.605 13.606-13.605 7.512 0 13.624 6.094 13.624 13.606v23.97c0 1.032-.851 1.888-1.903 1.888M266.613 296.95c.184-.32.472-.32.642 0 .184.323.398.775.608 1.307.408 1.09.67 2.552.67 3.996 0 1.448-.262 2.904-.666 3.995-.214.547-.422 1.003-.612 1.315-.17.317-.458.317-.642 0a9.114 9.114 0 0 1-.598-1.315c-.418-1.09-.674-2.547-.674-3.995.007-1.444.27-2.906.674-3.996.208-.532.421-.984.598-1.308M237.14 296.925c1.84-2.46 4.527-5.5 7.39-8.363 2.868-2.86 5.903-5.543 8.361-7.39a50.656 50.656 0 0 1 3.011-2.178c.765-.495.955-.312.452.447a58.37 58.37 0 0 1-2.165 3.034c-1.854 2.435-4.539 5.484-7.408 8.356-2.863 2.856-5.903 5.536-8.35 7.387a53.357 53.357 0 0 1-3.01 2.17c-.764.498-.967.298-.466-.454a50.945 50.945 0 0 1 2.184-3.01M250.151 305.892c.515-2.248 1.47-5.15 2.661-7.916 1.187-2.783 2.626-5.475 3.891-7.408.637-.967 1.21-1.75 1.645-2.288.411-.544.674-.428.57.248-.086.685-.27 1.645-.508 2.768-.532 2.25-1.468 5.145-2.655 7.935-1.199 2.786-2.63 5.457-3.904 7.393a28.503 28.503 0 0 1-1.632 2.284c-.43.541-.685.428-.588-.248.092-.685.257-1.641.52-2.768M237.085 267.49c.544.205.997.425 1.314.609.324.184.324.45 0 .637-.317.17-.77.39-1.314.599-1.083.41-2.544.684-3.988.684-1.451 0-2.9-.265-3.995-.675-.54-.21-.997-.438-1.323-.608-.317-.178-.317-.453 0-.637a9.938 9.938 0 0 1 1.323-.61c1.095-.406 2.544-.675 3.995-.675 1.444 0 2.905.276 3.988.676M236.204 279.57c2.776-1.194 5.646-2.118 7.872-2.626a25.851 25.851 0 0 1 2.748-.514c.68-.1.79.16.25.588-.532.42-1.303.98-2.276 1.622-1.902 1.265-4.563 2.697-7.328 3.865-2.77 1.188-5.634 2.136-7.874 2.644-1.113.244-2.06.421-2.74.507-.673.098-.789-.17-.25-.587a30.443 30.443 0 0 1 2.262-1.628c1.916-1.272 4.571-2.688 7.336-3.872M295.482 268.099a8.53 8.53 0 0 1 1.304-.61c1.094-.406 2.537-.675 3.988-.68 1.456 0 2.91.274 4 .68.55.206 1.004.426 1.31.61.323.177.323.45 0 .624a9.352 9.352 0 0 1-1.31.621c-1.09.41-2.544.675-4 .675-1.45-.005-2.894-.275-3.988-.684a8.903 8.903 0 0 1-1.304-.612c-.324-.175-.324-.447 0-.624M279.693 254.366c1.853-2.448 4.538-5.5 7.384-8.36 2.862-2.87 5.916-5.552 8.368-7.399a48.147 48.147 0 0 1 3.028-2.17c.741-.491.936-.295.434.454-.501.736-1.217 1.82-2.172 3.019-1.829 2.444-4.52 5.481-7.389 8.35-2.87 2.871-5.91 5.554-8.35 7.385a49.518 49.518 0 0 1-3.022 2.19c-.753.488-.955.299-.453-.456.501-.75 1.229-1.81 2.172-3.013M286.807 259.81a35.988 35.988 0 0 1 2.288-1.635c1.934-1.272 4.619-2.702 7.403-3.894 2.777-1.194 5.67-2.136 7.928-2.654 1.125-.258 2.079-.428 2.764-.504.68-.114.784.147.252.563a40.739 40.739 0 0 1-2.288 1.65c-1.928 1.257-4.619 2.706-7.403 3.89-2.789 1.183-5.677 2.13-7.94 2.655a33.752 33.752 0 0 1-2.758.518c-.667.106-.778-.156-.246-.59M267.255 239.882c-.17.321-.458.321-.63 0a10.605 10.605 0 0 1-.606-1.324c-.408-1.083-.672-2.539-.672-3.985 0-1.447.264-2.91.667-3.999.21-.537.423-.99.612-1.312.17-.315.459-.315.63 0 .19.321.41.775.611 1.312.404 1.09.68 2.552.68 3.999-.013 1.446-.276 2.902-.68 3.985-.213.55-.421 1.003-.612 1.324M275.465 245.55c.514-2.233 1.457-5.102 2.625-7.855 1.185-2.778 2.612-5.432 3.872-7.347.63-.964 1.204-1.73 1.628-2.27.415-.531.679-.415.587.251a33.254 33.254 0 0 1-.508 2.752c-.508 2.228-1.45 5.107-2.636 7.868-1.182 2.76-2.607 5.432-3.874 7.335a31.7 31.7 0 0 1-1.62 2.267c-.436.544-.685.418-.582-.246.086-.68.252-1.629.508-2.754M70.489 279.619c-.501-.76-.3-.95.452-.447.753.501 1.805 1.23 3.023 2.177 2.446 1.842 5.48 4.532 8.35 7.384 2.87 2.866 5.548 5.91 7.39 8.358a42.71 42.71 0 0 1 2.177 3.02c.501.753.3.949-.447.446a53.574 53.574 0 0 1-3.028-2.161c-2.44-1.857-5.486-4.543-8.356-7.403-2.857-2.872-5.536-5.905-7.384-8.346a53.504 53.504 0 0 1-2.177-3.028M91.013 282.646c-.857.085-1.89-.067-2.808-.472-.936-.39-1.75-1.027-2.288-1.715a5.726 5.726 0 0 1-.612-.914c-.123-.251-.012-.49.257-.586a5.107 5.107 0 0 1 1.071-.185c.863-.092 1.89.061 2.825.464.931.392 1.75 1.03 2.276 1.701.276.344.484.664.607.91.145.26.017.516-.245.589a4.892 4.892 0 0 1-1.083.208M59.587 297.12c.19-.322.466-.322.638 0 .182.314.402.77.61 1.314.404 1.084.674 2.54.674 3.995 0 1.441-.27 2.907-.674 3.99a7.71 7.71 0 0 1-.61 1.302c-.172.33-.447.33-.643 0a8.77 8.77 0 0 1-.6-1.303c-.416-1.082-.672-2.548-.672-3.989 0-1.455.275-2.91.679-3.995.2-.544.42-1 .598-1.314M68.5 288.439c.429.544.998 1.328 1.627 2.27 1.267 1.922 2.692 4.582 3.867 7.354 1.187 2.758 2.123 5.636 2.643 7.87.25 1.115.416 2.063.508 2.74.097.676-.166.786-.588.244a31.688 31.688 0 0 1-1.627-2.254c-1.265-1.915-2.685-4.587-3.872-7.347-1.181-2.777-2.123-5.633-2.624-7.88a29.078 29.078 0 0 1-.503-2.737c-.104-.676.148-.78.57-.26M59.581 229.43c.196-.312.459-.312.643 0 .19.32.404.778.61 1.316.406 1.095.674 2.544.674 3.998 0 1.45-.268 2.902-.684 3.985a8.004 8.004 0 0 1-.6 1.324c-.184.321-.447.321-.643 0-.17-.32-.397-.767-.6-1.324-.416-1.083-.672-2.536-.678-3.985 0-1.454.262-2.903.678-3.998.203-.538.411-.997.6-1.316M30.102 240.087a54.149 54.149 0 0 1-2.172-3.025c-.502-.761-.306-.95.453-.456.759.496 1.804 1.243 3.023 2.172 2.458 1.841 5.48 4.533 8.356 7.403 2.862 2.862 5.54 5.902 7.389 8.356a50.016 50.016 0 0 1 2.177 3.013c.496.755.3.945-.458.444a52.285 52.285 0 0 1-3.01-2.16c-2.453-1.853-5.493-4.533-8.356-7.403-2.864-2.862-5.55-5.906-7.402-8.344M43.113 231.094a38.852 38.852 0 0 1-.513-2.765c-.092-.667.152-.783.587-.25.428.543.997 1.333 1.64 2.287 1.265 1.936 2.697 4.62 3.897 7.412 1.18 2.787 2.121 5.674 2.641 7.92a32.85 32.85 0 0 1 .527 2.764c.11.68-.159.804-.587.244-.429-.538-.997-1.309-1.634-2.28-1.266-1.925-2.703-4.617-3.891-7.397-1.204-2.79-2.147-5.675-2.667-7.935M20.754 268.27a9.273 9.273 0 0 1 1.321-.627c1.09-.402 2.54-.664 3.983-.664 1.456.013 2.912.281 4.001.68.544.213.99.428 1.315.61.312.175.312.454 0 .628-.324.192-.77.4-1.315.61-1.09.414-2.545.672-4.001.672-1.443 0-2.893-.258-3.983-.672-.544-.21-1.002-.418-1.321-.61-.312-.174-.312-.453 0-.628M19.818 251.349c.686.085 1.634.256 2.747.508 2.239.512 5.108 1.453 7.873 2.625 2.766 1.186 5.426 2.618 7.347 3.884.948.624 1.73 1.192 2.257 1.615.544.428.428.688-.25.593a39.098 39.098 0 0 1-2.742-.517c-2.238-.51-5.094-1.452-7.878-2.627-2.766-1.186-5.414-2.588-7.335-3.88-.948-.621-1.732-1.181-2.257-1.614-.539-.422-.428-.684.238-.587" fill="#2B2B2A"/><path d="M59.992 318.622c-27.64 0-50.127-22.486-50.127-50.126 0-27.614 22.488-50.114 50.127-50.114 1.168 0 2.33.031 3.505.12 3.773.266 7.53.97 11.159 2.076 1.1.331 3.284.704 3.754 1.98.25.682-.182 1.324-.47 1.906a184.4 184.4 0 0 0-1.395 2.758c-1.639 3.231-3.279 6.475-4.907 9.715-1.546 3.052-3.09 6.099-4.624 9.145-1.37 2.68-2.716 5.378-4.08 8.06-1.082 2.156-2.172 4.312-3.261 6.475-.728 1.45-1.473 2.924-2.203 4.365-.312.596-.598 1.183-.904 1.78a3.867 3.867 0 0 0 .086 3.636 3.816 3.816 0 0 0 3.064 1.931l13 .945c7.738.58 15.465 1.138 23.204 1.704 1.792.138 3.597.266 5.394.4.808.055 2.827-.182 3.31.624.58.991-1.071 2.043-1.707 2.576-1.21 1.003-2.501 1.975-3.877 2.735-2.62 1.893-2.907 3.555-2.706 5.967a6.752 6.752 0 0 0 2.9 5.008c1.267.868 4.314 1.057 2.974 3.174a50.367 50.367 0 0 1-4.784 6.316 50.15 50.15 0 0 1-37.432 16.844zm49.38-53.554c-.22 2.242-1.047 3.126-3.243 2.957-1.328-.092-2.637-.187-3.945-.281-3.622-.263-7.25-.532-10.864-.804-7.195-.52-14.371-1.054-21.566-1.572-1.736-.132-3.822-.102-2.66-2.404.838-1.664 1.682-3.332 2.52-5.007 1.223-2.412 2.435-4.824 3.652-7.225l4.454-8.816c1.633-3.242 3.272-6.472 4.9-9.708.704-1.383 1.394-2.768 2.092-4.142.532-1.052 1.125-2.22 2.49-1.624 1.327.572 2.612 1.774 3.738 2.667a50.28 50.28 0 0 1 6.734 6.384 50.494 50.494 0 0 1 9.47 16.028 49.791 49.791 0 0 1 2.454 9.85c.166 1.14-.122 2.54-.226 3.697zm1.174-37.694a28.025 28.025 0 0 0-.593 3.17 70.674 70.674 0 0 0-.477 4.545 61.128 61.128 0 0 0-11.93-12.981 66.235 66.235 0 0 0-4.19-3.092c-.667-.468-1.584-.847-2.16-1.395-.642-.603-.452-1.47-.11-2.163.459-.942.936-1.86 1.402-2.77 1.425-2.82 2.85-5.647 4.269-8.467 1.137-2.245 2.264-4.481 3.396-6.724.428-.832.85-1.67 1.265-2.499.338-.68.74-2.002 1.574-2.186.86-.19 1.988 2.52 2.378 3.181.887 1.523 1.775 3.05 2.662 4.581 1.92 3.298 3.853 6.58 5.78 9.892.552.948 1.114 1.903 1.665 2.858.324.544.764 1.092.856 1.718.104.728-.343 1.114-.723 1.64a26.881 26.881 0 0 0-2.078 3.163 28.994 28.994 0 0 0-2.986 7.53zm57.46-76.4c-2.678-1.694-22.866-13.702-59.925-17.22.936-2.793 3.45-5.594 5.212-7.225a31.87 31.87 0 0 1 4.716-3.664c1.217-.765 2.881-1.945 4.319-2.203 3.089-.568 5.573 3.108 7.48 4.922a399.27 399.27 0 0 1 6.1 5.842c.056.04.098.08.136.132.054.043.104.08.146.135.452.425.96.813 1.53 1.15 1.633.957 3.096 2.171 4.772 3.08a41.856 41.856 0 0 0 4.685 2.15c3.31 1.284 6.753 2.153 10.173 3.085 4.527 1.203 9.004 2.52 13.422 4.096 1.902.704 3.793 1.408 5.658 2.167 1.022.412 2.056.85 3.059 1.272.397.183 1.07.336 1.383.636.538.556-.116.777-.556.972a3.187 3.187 0 0 0-1.64 4.21 3.19 3.19 0 0 0 2.929 1.92c.423 0 .863-.086 1.279-.28l3.78-1.64c.294.167.618.354.96.562 2.98 1.804 4.877.936 5.96.343 2.366-1.27 3.162-1.866 5.04-2.57.888-.314 1.304-1.092 1.188-2.002-.062-.444-.502-.959-.44-1.399.109-.608 1.026-.95 1.522-1.159.3-.144.69-.394 1.022-.422.14-.03.392 0 .5.082.264.196.105.19.057.454-.159.733-.428 1.456-.588 2.208a22.324 22.324 0 0 0-.496 4.692c0 3.31.721 6.57 2.1 9.55l-1.42.63c-1.713.761-2.496 2.77-1.725 4.482a3.389 3.389 0 0 0 3.094 2.014c.466 0 .93-.095 1.384-.3l1.73-.762 4.618 9.124h-42.344l4.252-14.558.306-1.072c.562-1.946.636-4.055.105-6.16a11.776 11.776 0 0 0-5.483-7.274zm-44.07 118.36c-1.847-.116-2.28-.645-2.14-2.606.122-1.66.758-3.214 1.108-4.823.28-1.288.56-2.61.948-3.87 1.18-3.823 2.336-7.638 3.505-11.463.397-1.292.795-2.582 1.199-3.886.274-.917.428-2.777.96-3.517.177-.235.342-.355.502-.367.722-.092 1.4 1.407 1.859 2.172.857 1.456 1.505 3.035 2.368 4.487 1.113 1.936 2.232 3.832 3.347 5.739.832 1.425 2.244 2.82 1.853 4.606-.343 1.526-2.044 2.506-3.023 3.655a22.237 22.237 0 0 0-3.53 5.652c-.446 1.065-.758 2.148-1.1 3.227-.587 1.826-2.508 1.444-3.995 1.318-1.279-.11-2.57-.246-3.86-.324zm-.348 8.254c-.3-.784 1.108-.606 1.609-.595 1.553.055 2.007.087 3.548.21 1.163.085 1.793-.01 2.441 1.075.514.872.764 1.728 1.102 2.686a22.383 22.383 0 0 0 3.326 6.257 23.98 23.98 0 0 0 2.363 2.619c.433.41.875.798 1.333 1.17.379.314.948.604 1.022 1.16.085.658-.514 1.408-.814 1.96-.233.414-.434.92-.741 1.296-.752.93-2.341-.526-3.003-1.006-3.205-2.335-5.77-5.496-7.505-9.046-.748-1.522-1.42-3.18-1.744-4.857-.19-.973-.827-1.78-1.768-2.13-.57-.2-.863-.125-1.17-.8zm9.036-97.55c-1.315 0-2.766.27-3.512-1.02-.911-1.564-1.798-3.146-2.734-4.688-.465-.776-2.985-4.784-4.392-7.022 10.827-1.04 20.61-2.275 30.776 2.224-2.673 2.952-5.01 6.34-6.54 10.506h-13.598zm9.488 52.99a7.732 7.732 0 0 0-.483 3.701c.116 1.064.183 2.135.183 3.193 0 .452.22 1.242-.275 1.516-.661.371-1.205-.776-1.463-1.206-.948-1.607-1.865-3.203-2.801-4.794-.979-1.706-1.983-3.408-2.979-5.098-1.266-2.207-.552-4.684.159-6.996l1.841-5.99c.778-2.569 1.566-5.144 2.35-7.716l.244-.768c.024-.096.037-.177.08-.245v-.055c.672-2.257.648-4.59.012-6.729-.203-.796-.44-1.557-.68-2.33a86.45 86.45 0 0 0-2.226-6.106 117.128 117.128 0 0 0-1.798-4.197c-.258-.544-.747-1.156.049-1.462.44-.17.972-.04 1.419-.04h8.76c-2.031 18.314 2.93 29.147-2.355 44.887l.085.007c-.042.14-.092.286-.122.428zm1.614 53.306c-3.78-2.877-6.233-7.402-6.233-12.51 0-8.662 7.06-15.73 15.735-15.73 8.66 0 15.714 7.068 15.714 15.73 0 8.674-7.053 15.722-15.714 15.722-1.854 0-3.635-.333-5.287-.929l5.17-9.47c.043 0 .08.003.117.003a5.32 5.32 0 0 0 5.32-5.326c0-2.936-2.39-5.328-5.32-5.328-2.95 0-5.342 2.392-5.342 5.328 0 1.152.374 2.197.986 3.072l-5.146 9.438zm11.202-34.91c.049-.555 1.198-1.366 1.584-1.592 1.022-.624 2.117-1.095 3.218-1.542a44.655 44.655 0 0 1 3.194-1.138c.385-.115 1.16-.526 1.565-.396.924.292.153 1.182-.104 1.652l-1.18 2.194c-.312.534-1.09 2.602-1.64 2.708-.33.036-1.199-.413-1.523-.514-.501-.144-.973-.31-1.462-.424-1.034-.246-2.135-.246-3.126-.484-.385-.098-.538-.26-.526-.464zm16.437 1.75c-.776.68-1.553 1.351-2.33 2.018-.269.252-.545.482-.814.728-.215.17-.416.41-.648.518-.63.282-1.475-.317-1.456-1.02.017-.576.525-1.12.795-1.604l3.218-5.914c.422-.77.819-1.564 1.254-2.319.758-1.264 2.06-1.63 3.358-2.16a29.191 29.191 0 0 0 3.29-1.548c2.197-1.187 4.246-2.716 5.904-4.593 3.017-3.378 4.038-5.595 3.06-6.932-.98-1.334-2.68-.599-2.68-.599-13.195 6.867-24.328-1.065-24.328-1.065-.656-.468-1.44-.654-2.234-.468-.49.101-1.108.23-1.524-.07.472-6.326 2.662-14.028 2.662-14.028l7.708-26.412h48.468l3.188 6.28c.116.226.256.435.414.627.71.905 1.156 2.297 1.69 3.337a640.055 640.055 0 0 0 1.865 3.707c.533 1.077 1.56 2.417 1.768 3.588.325 1.85-1.15 2.97-2.361 4.037-2.098 1.827-4.208 3.674-6.312 5.512-2.864 2.487-5.727 4.995-8.584 7.491-3.247 2.833-6.508 5.687-9.763 8.523-3.285 2.868-6.576 5.744-9.873 8.618-2.962 2.598-5.928 5.175-8.89 7.776l-6.845 5.971zm38.779-115.92c-.851.45-1.806.78-2.692 1.174-2.612 1.15-5.231 2.278-7.836 3.432-.428.182-1.132.544-1.542.14-.22-.195-.33-.563-.532-.795a2.582 2.582 0 0 0-.656-.617c-.556-.392-1.272-.667-1.962-.692l-9.495-.43c-19.63-7.816-21.344-16.454-38.601-20.816-1.72-.446-4.067-2.912-5.2-4.2-1.18-1.354-1.388-4.533 1.334-4.37 1.07.054 2.263 1.7 3.29 2.25 5.116 2.738 14.818 7.687 20.208 10.566 1.718.912 3.345 1.988 5.12 2.82a47.083 47.083 0 0 0 5.077 2.006c3.439 1.151 6.999 1.915 10.547 2.643 4.105.832 8.197 1.621 12.253 2.636 2.005.49 4 1.047 5.988 1.64 1.077.324 2.155.648 3.23 1.021.6.203 2.655.723 1.702 1.438-.061.058-.136.098-.233.153zm18.236 99.383a49.405 49.405 0 0 1 4.422-4.699c.612-.58 1.542-1.773 2.435-1.877 1.04-.13 1.799.96 2.221 1.737.61 1.171 1.194 2.367 1.78 3.548 1.095 2.166 2.19 4.326 3.286 6.482 2.385 4.744 4.758 9.49 7.162 14.213 2.698 5.275 8.412 14.388 16.494 16.21.293.057.574.093.85.093a3.832 3.832 0 0 0 3.738-3 3.845 3.845 0 0 0-2.9-4.59c-4.264-.962-8.64-6.914-11.33-12.193-2.385-4.68-4.741-9.379-7.097-14.068a1955.357 1955.357 0 0 1-3.768-7.444c-.728-1.437-1.7-2.763-2.147-4.328-.605-2.16.526-2.796 2.288-3.623a49.86 49.86 0 0 1 14.279-4.236 49.29 49.29 0 0 1 6.93-.48c27.645 0 50.12 22.5 50.12 50.114 0 27.64-22.475 50.126-50.12 50.126-27.633 0-50.12-22.486-50.12-50.126 0-7.194 1.56-14.356 4.583-20.903a50.225 50.225 0 0 1 6.894-10.956zM59.992 208.774c-32.924 0-59.724 26.795-59.724 59.722 0 32.933 26.8 59.728 59.724 59.728a59.56 59.56 0 0 0 16.4-2.296c9.849-2.822 18.904-8.223 26.092-15.527a59.814 59.814 0 0 0 9.23-12.095c.447-.776.99-2.536 1.75-2.985.6-.36 1.56.064 2.146.293 1.628.638 3.03 1.707 4.57 2.512 2.356 1.22 4.717 2.431 7.2 3.39.82.308 1.66.596 2.502.846.387.104.968.154 1.316.331.747.44-.422.825-.721 1.15a3.173 3.173 0 0 0-.881 2.195c0 1.763 1.444 3.2 3.212 3.2h7.946a3.204 3.204 0 0 0 3.206-3.2c0-.894-.392-1.77-1.066-2.385-.194-.165-1.052-.501-1.106-.697-.104-.388.697-.468.924-.538.39-.148.794-.324 1.149-.562.515-.34.948-.827 1.028-1.479.135-.877-.355-1.596-1.07-2.047-.827-.513-.502-1.217-.098-1.94.287-.542.447-1.277.965-1.68.662-.502 1.666.15 2.356.36 2.002.582 4.092.878 6.186.878 12.185 0 22.113-9.93 22.113-22.124a22.32 22.32 0 0 0-.899-6.222c-.6-2.006-2.678-4.373-.777-6.23.6-.606 1.279-1.128 1.915-1.678 1.89-1.658 3.786-3.297 5.67-4.965 5.366-4.69 10.743-9.379 16.102-14.061 5.72-4.99 11.44-9.98 17.146-14.963 3.952-3.45 7.892-6.895 11.844-10.344.71-.63 1.279-1.047 2.227-.508.71.373 1.04 1.217 1.37 1.856.466.964 1.482 2.595 1.23 3.71-.159.765-1.108 1.218-1.67 1.677a52.57 52.57 0 0 0-2.422 2.054 61.578 61.578 0 0 0-4.484 4.503c-5.725 6.375-10.063 13.96-12.601 22.133a59.489 59.489 0 0 0-2.687 17.71c0 32.933 26.79 59.728 59.719 59.728 32.936 0 59.724-26.795 59.724-59.728 0-32.927-26.788-59.722-59.724-59.722-5.066 0-10.138.652-15.043 1.931a58.883 58.883 0 0 0-10.381 3.768c-1.028.49-2.686 2.007-3.812.899-.66-.654-1.052-2.018-1.474-2.85-.545-1.086-1.09-2.16-1.64-3.24l-4.03-7.98c-.638-1.269-1.243-2.557-1.635-3.908-.861-3.017.49-8.369 4.448-8.414 1.683-.03 1.077 4.865 1.077 5.857a1.5 1.5 0 0 0 1.492 1.516l82.976 1.019c.827 0 1.499-.67 1.499-1.496V169.59a1.5 1.5 0 0 0-1.499-1.498l-82.976-.007a1.49 1.49 0 0 0-1.492 1.492v9.391c0 .886.09 2.013-.557 2.716-.685.777-1.767.737-2.679 1.01a13.712 13.712 0 0 0-3.06 1.343 13.92 13.92 0 0 0-2.586 1.997c-2.062 2.04-2.974-.502-3.758-2.074a1918.29 1918.29 0 0 1-3.553-7.032c-.881-1.747-2.856-5.635-4.668-9.183l1.035-.468c1.713-.755 2.477-2.765 1.718-4.48-.765-1.716-2.77-2.479-4.485-1.716l-1.35.599c-.331-.672-.54-1.076-.551-1.107a14.827 14.827 0 0 1-.974-5.273 15.163 15.163 0 0 1 2.632-8.528 15.616 15.616 0 0 1 2.636-2.943c.459-.397 1.015-.93 1.572-1.175.63-.293 1.088-.008 1.646.295.47.235.966.447 1.498.577.728.178 1.51.206 2.252 0 .79-.217 1.236-.669 1.842-1.146 0 0 2.392-1.867 4.2-2.442 1.488-.464 1.2-1.872 1.2-1.872-.054-.685-.434-1.498.166-1.98.575-.454 1.364-.564 2.024-.854 1.616-.7 2.35-2.598 1.64-4.212a3.202 3.202 0 0 0-4.216-1.662c-.33.151-.745.407-1.112.242-.361-.159-.654-.587-1.021-.776-.399-.218-.881-.392-1.34-.428l-12.993-1.188c-16.995-6.974-19.638-14.852-36.252-18.45a8.867 8.867 0 0 0-1.622-.826l.067-.152c-4.08-1.206-6.3-2.267-10.79-5.64-4.246-3.207-7.085-7.526-10.266-11.698-1.437-1.896-3.004-3.697-4.888-5.18-.71-.557-1.565-1.016-1.767-1.982-.245-1.139.434-2.352.918-3.326.586-1.22 1.094-2.529 2.14-3.432.673-.556 1.554-1.049 2.3-1.508 2.656-1.614 6.166-.189 9.14-1.016 1.505-.424 3.132-1.35 3.132-3.13 0-1.09.306-2.11.88-3.054.398-.642 1.45-1.914 1.45-2.722 0-1.608-1.75-2.887-.336-3.762.655-.416 2.85-.668 2.85-1.949 0-.887-.72-1.263-.72-1.263-3.867-2.658-3.292-5.677-3.292-5.677.36-2.43.404-2.823.3-4.368-.031-.633.116-1.413.869-1.535 7.64-.798 15.147-3.145 21.997-7.084l1.506-.838c.446-.284.745-.783.745-1.34 0-.875-.703-1.594-1.57-1.594a1.55 1.55 0 0 0-.478.078c-.245.078-1.505.568-1.505.568-7.64 2.254-13.911 2.888-22.64 1.75-1.542-4.736-6.595-8.797-14.627-9.406C131.1 27.292 127 39.698 126.298 43.73c-.697 4.031.012 8.203 2.295 12.656.14.27.275.546.41.82.243.68.397 1.395.403 2.167.086 3.452-2.46 6.359-5.818 6.808a7.138 7.138 0 0 0 4.57 1.572 7.141 7.141 0 0 0 3.542-1.101c-1.26 3.332-6.124 5.462-7.66 5.58-8.52 1.038-16.535 4.728-23.496 9.622-7.586 5.328-14.088 12.124-19.43 19.674-5.328 7.526-9.561 15.91-12.118 24.781-2.312 8.07-3.255 16.737-1.578 25.017a38.1 38.1 0 0 0 1.01 3.931c.33 1.04 1.278 2.373 1.02 3.51-.232 1.047-1.92 1.695-2.684 2.46a11.017 11.017 0 0 0-3.182 7.714c0 6.063 4.924 10.984 10.982 10.984.538 0 1.026-.052 1.38-.095.076 0 .154-.017.228-.03l.472-.067c.066-.019.14-.03.22-.05.532-.115 1.033-.3 1.553-.449 1.676-.486 3.34-.976 4.997-1.472.698-.2 1.396-.416 2.087-.626.508-.144 1.163-.468 1.701-.392.79.117 1.419.976 2 1.465.972.796 1.958 1.579 2.955 2.361.924.76 1.903 1.423 2.844 2.13.595.45 1.217.874 1.75 1.382.63.606 1.027 1.09.611 1.878-.305.593-.593 1.198-.893 1.786-.832 1.652-1.675 3.322-2.513 4.974l-3.512 6.968c-1.407 2.79-2.826 5.59-4.24 8.393-.55 1.09-1.095 2.177-1.651 3.255-.263.562-.501 1.26-1.07 1.577-.76.41-1.402.096-2.13-.185a64.594 64.594 0 0 0-5.267-1.747 59.143 59.143 0 0 0-11.121-1.995 58.427 58.427 0 0 0-4.973-.212z" fill="#2B2B2A"/><path d="M129.956 1.37c-.366-.975-.966-.975-1.328 0l-1.46 3.958c-.369.984-1.469 2.088-2.466 2.456l-3.959 1.468c-.99.362-.99.96 0 1.334l3.959 1.458c.997.364 2.097 1.472 2.465 2.458l1.461 3.97c.362.983.962.983 1.328 0l1.468-3.97c.355-.986 1.463-2.094 2.454-2.458l3.964-1.458c.99-.374.99-.972 0-1.334l-3.964-1.468c-.99-.368-2.099-1.472-2.454-2.456l-1.468-3.958z" fill="#DE2370"/><path d="M156.23 19.095c-1.198-.955-1.418-2.673-.477-3.835.93-1.164 2.662-1.316 3.855-.349 1.187.96 1.407 2.685.477 3.841-.937 1.156-2.661 1.31-3.854.343M188.94 19.958c-4.116-1.447-6.295-5.848-4.893-9.812 1.406-3.97 5.865-6.014 9.972-4.552 4.092 1.453 6.288 5.845 4.874 9.818-1.4 3.952-5.86 5.983-9.953 4.546" fill="#2B2B2A"/><path d="M78.105 27.14c-.52-1.374-1.364-1.374-1.866 0l-2.06 5.56c-.509 1.38-2.064 2.942-3.458 3.457l-5.567 2.056c-1.395.513-1.395 1.354 0 1.877l5.567 2.05c1.394.51 2.95 2.067 3.457 3.446l2.061 5.577c.502 1.394 1.346 1.394 1.866 0l2.056-5.577c.506-1.379 2.061-2.936 3.444-3.447l5.573-2.049c1.388-.523 1.388-1.364 0-1.877l-5.573-2.056c-1.383-.515-2.938-2.078-3.444-3.456l-2.056-5.562z" fill="#DE2370"/><path d="M95.668 22.288c-1.15-.929-1.364-2.58-.459-3.7.894-1.12 2.564-1.268 3.714-.334 1.144.914 1.357 2.581.458 3.696-.898 1.116-2.562 1.262-3.713.338M107.811 47.994c-1.657-1.333-1.957-3.708-.661-5.316 1.285-1.603 3.684-1.817 5.335-.484 1.652 1.328 1.952 3.717.654 5.313-1.284 1.603-3.676 1.815-5.328.487" fill="#2B2B2A"/></g></svg>